<?xml version="1.0" encoding="utf-8" standalone="no"?>
<!DOCTYPE svg PUBLIC "-//W3C//DTD SVG 1.1//EN"
  "http://www.w3.org/Graphics/SVG/1.1/DTD/svg11.dtd">
<svg xmlns:xlink="http://www.w3.org/1999/xlink" width="432pt" height="1296pt" viewBox="0 0 432 1296" xmlns="http://www.w3.org/2000/svg" version="1.1">
 <metadata>
  <rdf:RDF xmlns:dc="http://purl.org/dc/elements/1.1/" xmlns:cc="http://creativecommons.org/ns#" xmlns:rdf="http://www.w3.org/1999/02/22-rdf-syntax-ns#">
   <cc:Work>
    <dc:type rdf:resource="http://purl.org/dc/dcmitype/StillImage"/>
    <dc:date>2023-11-02T10:19:48.302660</dc:date>
    <dc:format>image/svg+xml</dc:format>
    <dc:creator>
     <cc:Agent>
      <dc:title>Matplotlib v3.6.2, https://matplotlib.org/</dc:title>
     </cc:Agent>
    </dc:creator>
   </cc:Work>
  </rdf:RDF>
 </metadata>
 <defs>
  <style type="text/css">*{stroke-linejoin: round; stroke-linecap: butt}</style>
 </defs>
 <g id="figure_1">
  <g id="patch_1">
   <path d="M 0 1296 
L 432 1296 
L 432 0 
L 0 0 
z
" style="fill: #ffffff"/>
  </g>
  <g id="axes_1">
   <g id="patch_2">
    <path d="M 112.851341 417.41013 
Q 125.314037 388.905118 137.776734 360.400106 
" clip-path="url(#pe6caa5f831)" style="fill: none; stroke: #000000; stroke-width: 2.3; stroke-linecap: round"/>
   </g>
   <g id="patch_3">
    <path d="M 107.720091 417.308609 
Q 96.608259 388.903298 85.496427 360.497987 
" clip-path="url(#pe6caa5f831)" style="fill: none; stroke: #000000; stroke-width: 2.7; stroke-linecap: round"/>
   </g>
   <g id="patch_4">
    <path d="M 219.338974 419.946033 
Q 211.433518 414.89383 203.528063 409.841627 
" clip-path="url(#pe6caa5f831)" style="fill: none; stroke: #000000; stroke-width: 0.95; stroke-linecap: round"/>
   </g>
   <g id="patch_5">
    <path d="M 230.813909 420.225215 
Q 240.139982 414.892505 249.466054 409.559794 
" clip-path="url(#pe6caa5f831)" style="fill: none; stroke: #000000; stroke-width: 4.05; stroke-linecap: round"/>
   </g>
   <g id="patch_6">
    <path d="M 279.297673 417.607884 
Q 268.844461 397.566628 258.391248 377.525373 
" clip-path="url(#pe6caa5f831)" style="fill: none; stroke: #000000; stroke-width: 5; stroke-linecap: round"/>
   </g>
   <g id="patch_7">
    <path d="M 338.24433 417.032071 
Q 321.073781 345.588753 303.903233 274.145434 
" clip-path="url(#pe6caa5f831)" style="fill: none; stroke: #000000; stroke-width: 0.2; stroke-linecap: round"/>
   </g>
   <g id="patch_8">
    <path d="M 340.663461 416.898825 
Q 349.779851 345.587554 358.896241 274.276284 
" clip-path="url(#pe6caa5f831)" style="fill: none; stroke: #000000; stroke-width: 4.8; stroke-linecap: round"/>
   </g>
   <g id="patch_9">
    <path d="M 171.99075 418.507823 
Q 182.726657 406.230097 193.462564 393.95237 
" clip-path="url(#pe6caa5f831)" style="fill: none; stroke: #000000; stroke-width: 5; stroke-linecap: round"/>
   </g>
   <g id="patch_10">
    <path d="M 197.877005 399.525563 
Q 197.877005 397.569019 197.877005 395.612476 
" clip-path="url(#pe6caa5f831)" style="fill: none; stroke: #000000; stroke-width: 0.95; stroke-linecap: round"/>
   </g>
   <g id="patch_11">
    <path d="M 255.289061 399.525563 
Q 255.289061 388.906965 255.289061 378.288367 
" clip-path="url(#pe6caa5f831)" style="fill: none; stroke: #000000; stroke-width: 4.05; stroke-linecap: round"/>
   </g>
   <g id="patch_12">
    <path d="M 197.877005 382.194072 
Q 197.877005 362.91259 197.877005 343.631109 
" clip-path="url(#pe6caa5f831)" style="fill: none; stroke: #000000; stroke-width: 5; stroke-linecap: round"/>
   </g>
   <g id="patch_13">
    <path d="M 251.422714 366.098808 
Q 236.949611 345.589175 222.476508 325.079543 
" clip-path="url(#pe6caa5f831)" style="fill: none; stroke: #000000; stroke-width: 5; stroke-linecap: round"/>
   </g>
   <g id="patch_14">
    <path d="M 146.888063 352.31314 
Q 169.172384 345.588025 191.456705 338.86291 
" clip-path="url(#pe6caa5f831)" style="fill: none; stroke: #000000; stroke-width: 2.3; stroke-linecap: round"/>
   </g>
   <g id="patch_15">
    <path d="M 88.561593 350.421259 
Q 132.889667 319.5992 177.217741 288.777141 
" clip-path="url(#pe6caa5f831)" style="fill: none; stroke: #000000; stroke-width: 2.7; stroke-linecap: round"/>
   </g>
   <g id="patch_16">
    <path d="M 203.022076 332.625522 
Q 208.24123 328.263784 213.460383 323.902047 
" clip-path="url(#pe6caa5f831)" style="fill: none; stroke: #000000; stroke-width: 5; stroke-linecap: round"/>
   </g>
   <g id="patch_17">
    <path d="M 223.836458 315.392379 
Q 229.373673 310.936223 234.910889 306.480066 
" clip-path="url(#pe6caa5f831)" style="fill: none; stroke: #000000; stroke-width: 0.7; stroke-linecap: round"/>
   </g>
   <g id="patch_18">
    <path d="M 212.568851 316.682539 
Q 200.669472 310.936817 188.770094 305.191096 
" clip-path="url(#pe6caa5f831)" style="fill: none; stroke: #000000; stroke-width: 4.3; stroke-linecap: round"/>
   </g>
   <g id="patch_19">
    <path d="M 240.508491 295.576275 
Q 242.530773 258.9584 244.553054 222.340525 
" clip-path="url(#pe6caa5f831)" style="fill: none; stroke: #000000; stroke-width: 0.7; stroke-linecap: round"/>
   </g>
   <g id="patch_20">
    <path d="M 182.726601 295.568343 
Q 182.726601 293.6118 182.726601 291.655257 
" clip-path="url(#pe6caa5f831)" style="fill: none; stroke: #000000; stroke-width: 4.3; stroke-linecap: round"/>
   </g>
   <g id="patch_21">
    <path d="M 188.841471 282.197747 
Q 240.535299 258.958356 292.229126 235.718966 
" clip-path="url(#pe6caa5f831)" style="fill: none; stroke: #000000; stroke-width: 4.3; stroke-linecap: round"/>
   </g>
   <g id="patch_22">
    <path d="M 297.362657 263.118725 
Q 273.628141 241.630431 249.893625 220.142137 
" clip-path="url(#pe6caa5f831)" style="fill: none; stroke: #000000; stroke-width: 0.2; stroke-linecap: round"/>
   </g>
   <g id="patch_23">
    <path d="M 353.323993 265.682123 
Q 331.039672 258.957008 308.755351 252.231893 
" clip-path="url(#pe6caa5f831)" style="fill: none; stroke: #000000; stroke-width: 3.7; stroke-linecap: round"/>
   </g>
   <g id="patch_24">
    <path d="M 359.747107 260.915937 
Q 359.747107 258.959394 359.747107 257.00285 
" clip-path="url(#pe6caa5f831)" style="fill: none; stroke: #000000; stroke-width: 1.1; stroke-linecap: round"/>
   </g>
   <g id="patch_25">
    <path d="M 300.831185 243.758935 
Q 300.341662 241.631597 299.852138 239.504259 
" clip-path="url(#pe6caa5f831)" style="fill: none; stroke: #000000; stroke-width: 3.7; stroke-linecap: round"/>
   </g>
   <g id="patch_26">
    <path d="M 356.401127 244.47804 
Q 339.812404 215.641991 323.22368 186.805941 
" clip-path="url(#pe6caa5f831)" style="fill: none; stroke: #000000; stroke-width: 1.1; stroke-linecap: round"/>
   </g>
   <g id="patch_27">
    <path d="M 298.348103 226.263531 
Q 298.348103 215.644933 298.348103 205.026335 
" clip-path="url(#pe6caa5f831)" style="fill: none; stroke: #000000; stroke-width: 1.6; stroke-linecap: round"/>
   </g>
   <g id="patch_28">
    <path d="M 251.3044 213.572383 
Q 271.63478 206.979073 291.965159 200.385763 
" clip-path="url(#pe6caa5f831)" style="fill: none; stroke: #000000; stroke-width: 0.5; stroke-linecap: round"/>
   </g>
   <g id="patch_29">
    <path d="M 303.575424 194.108957 
Q 309.11264 189.6528 314.649856 185.196643 
" clip-path="url(#pe6caa5f831)" style="fill: none; stroke: #000000; stroke-width: 1.1; stroke-linecap: round"/>
   </g>
   <g id="PathCollection_1">
    <defs>
     <path id="C0_0_e93a759cf7" d="M 0 6.708204 
C 1.779036 6.708204 3.485448 6.001385 4.743416 4.743416 
C 6.001385 3.485448 6.708204 1.779036 6.708204 -0 
C 6.708204 -1.779036 6.001385 -3.485448 4.743416 -4.743416 
C 3.485448 -6.001385 1.779036 -6.708204 0 -6.708204 
C -1.779036 -6.708204 -3.485448 -6.001385 -4.743416 -4.743416 
C -6.001385 -3.485448 -6.708204 -1.779036 -6.708204 0 
C -6.708204 1.779036 -6.001385 3.485448 -4.743416 4.743416 
C -3.485448 6.001385 -1.779036 6.708204 0 6.708204 
z
"/>
    </defs>
    <g clip-path="url(#pe6caa5f831)">
     <use xlink:href="#C0_0_e93a759cf7" x="197.877005" y="406.23016" style="fill: #ffffff; stroke: #15a6e2; stroke-width: 2"/>
    </g>
    <g clip-path="url(#pe6caa5f831)">
     <use xlink:href="#C0_0_e93a759cf7" x="255.289061" y="406.23016" style="fill: #ffffff; stroke: #15a6e2; stroke-width: 2"/>
    </g>
    <g clip-path="url(#pe6caa5f831)">
     <use xlink:href="#C0_0_e93a759cf7" x="197.877005" y="388.903957" style="fill: #deefe6; stroke: #51ad79; stroke-width: 2"/>
    </g>
    <g clip-path="url(#pe6caa5f831)">
     <use xlink:href="#C0_0_e93a759cf7" x="255.289061" y="371.577754" style="fill: #71bd93; stroke: #51ad79; stroke-width: 2"/>
    </g>
    <g clip-path="url(#pe6caa5f831)">
     <use xlink:href="#C0_0_e93a759cf7" x="140.464949" y="354.251551" style="fill: #ffffff; stroke: #15a6e2; stroke-width: 2"/>
    </g>
    <g clip-path="url(#pe6caa5f831)">
     <use xlink:href="#C0_0_e93a759cf7" x="83.052893" y="354.251551" style="fill: #ffffff; stroke: #15a6e2; stroke-width: 2"/>
    </g>
    <g clip-path="url(#pe6caa5f831)">
     <use xlink:href="#C0_0_e93a759cf7" x="197.877005" y="336.925348" style="fill: #afd9c2; stroke: #51ad79; stroke-width: 2"/>
    </g>
    <g clip-path="url(#pe6caa5f831)">
     <use xlink:href="#C0_0_e93a759cf7" x="218.609136" y="319.599144" style="fill: #51ad79; stroke: #51ad79; stroke-width: 2"/>
    </g>
    <g clip-path="url(#pe6caa5f831)">
     <use xlink:href="#C0_0_e93a759cf7" x="240.138657" y="302.272941" style="fill: #ffffff; stroke: #15a6e2; stroke-width: 2"/>
    </g>
    <g clip-path="url(#pe6caa5f831)">
     <use xlink:href="#C0_0_e93a759cf7" x="182.726601" y="302.272941" style="fill: #ffffff; stroke: #15a6e2; stroke-width: 2"/>
    </g>
    <g clip-path="url(#pe6caa5f831)">
     <use xlink:href="#C0_0_e93a759cf7" x="182.726601" y="284.946738" style="fill: #91ccab; stroke: #51ad79; stroke-width: 2"/>
    </g>
    <g clip-path="url(#pe6caa5f831)">
     <use xlink:href="#C0_0_e93a759cf7" x="302.335051" y="267.620535" style="fill: #ffffff; stroke: #15a6e2; stroke-width: 2"/>
    </g>
    <g clip-path="url(#pe6caa5f831)">
     <use xlink:href="#C0_0_e93a759cf7" x="359.747107" y="267.620535" style="fill: #ffffff; stroke: #15a6e2; stroke-width: 2"/>
    </g>
    <g clip-path="url(#pe6caa5f831)">
     <use xlink:href="#C0_0_e93a759cf7" x="302.335051" y="250.294332" style="fill: #ffffff; stroke: #15a6e2; stroke-width: 2"/>
    </g>
    <g clip-path="url(#pe6caa5f831)">
     <use xlink:href="#C0_0_e93a759cf7" x="359.747107" y="250.294332" style="fill: #ffffff; stroke: #15a6e2; stroke-width: 2"/>
    </g>
    <g clip-path="url(#pe6caa5f831)">
     <use xlink:href="#C0_0_e93a759cf7" x="298.348103" y="232.968128" style="fill: #8bc8a6; stroke: #51ad79; stroke-width: 2"/>
    </g>
    <g clip-path="url(#pe6caa5f831)">
     <use xlink:href="#C0_0_e93a759cf7" x="244.922995" y="215.641925" style="fill: #cde8d9; stroke: #51ad79; stroke-width: 2"/>
    </g>
    <g clip-path="url(#pe6caa5f831)">
     <use xlink:href="#C0_0_e93a759cf7" x="298.348103" y="198.315722" style="fill: #c8e5d5; stroke: #51ad79; stroke-width: 2"/>
    </g>
    <g clip-path="url(#pe6caa5f831)">
     <use xlink:href="#C0_0_e93a759cf7" x="319.877624" y="180.989519" style="fill: #51ad79; stroke: #51ad79; stroke-width: 2"/>
    </g>
   </g>
   <g id="PathCollection_2">
    <path d="M 104.164141 429.556364 
L 116.164141 429.556364 
L 116.164141 417.556364 
L 104.164141 417.556364 
z
" clip-path="url(#pe6caa5f831)" style="fill: #ffffff; stroke: #51ad79; stroke-width: 2"/>
    <path d="M 218.988254 429.556364 
L 230.988254 429.556364 
L 230.988254 417.556364 
L 218.988254 417.556364 
z
" clip-path="url(#pe6caa5f831)" style="fill: #ffffff; stroke: #51ad79; stroke-width: 2"/>
    <path d="M 276.40031 429.556364 
L 288.40031 429.556364 
L 288.40031 417.556364 
L 276.40031 417.556364 
z
" clip-path="url(#pe6caa5f831)" style="fill: #ffffff; stroke: #51ad79; stroke-width: 2"/>
    <path d="M 333.812366 429.556364 
L 345.812366 429.556364 
L 345.812366 417.556364 
L 333.812366 417.556364 
z
" clip-path="url(#pe6caa5f831)" style="fill: #ffffff; stroke: #51ad79; stroke-width: 2"/>
    <path d="M 161.576197 429.556364 
L 173.576197 429.556364 
L 173.576197 417.556364 
L 161.576197 417.556364 
z
" clip-path="url(#pe6caa5f831)" style="fill: #ffffff; stroke: #51ad79; stroke-width: 2"/>
   </g>
   <g id="text_1">
    <g clip-path="url(#pe6caa5f831)">
     <!-- 0 -->
     <g transform="translate(107.301016 426.039801) scale(0.09 -0.09)">
      <defs>
       <path id="DejaVuSans-30" d="M 2034 4250 
Q 1547 4250 1301 3770 
Q 1056 3291 1056 2328 
Q 1056 1369 1301 889 
Q 1547 409 2034 409 
Q 2525 409 2770 889 
Q 3016 1369 3016 2328 
Q 3016 3291 2770 3770 
Q 2525 4250 2034 4250 
z
M 2034 4750 
Q 2819 4750 3233 4129 
Q 3647 3509 3647 2328 
Q 3647 1150 3233 529 
Q 2819 -91 2034 -91 
Q 1250 -91 836 529 
Q 422 1150 422 2328 
Q 422 3509 836 4129 
Q 1250 4750 2034 4750 
z
" transform="scale(0.015625)"/>
      </defs>
      <use xlink:href="#DejaVuSans-30"/>
     </g>
    </g>
   </g>
   <g id="text_2">
    <g clip-path="url(#pe6caa5f831)">
     <!-- 1 -->
     <g transform="translate(222.125129 426.039801) scale(0.09 -0.09)">
      <defs>
       <path id="DejaVuSans-31" d="M 794 531 
L 1825 531 
L 1825 4091 
L 703 3866 
L 703 4441 
L 1819 4666 
L 2450 4666 
L 2450 531 
L 3481 531 
L 3481 0 
L 794 0 
L 794 531 
z
" transform="scale(0.015625)"/>
      </defs>
      <use xlink:href="#DejaVuSans-31"/>
     </g>
    </g>
   </g>
   <g id="text_3">
    <g clip-path="url(#pe6caa5f831)">
     <!-- 2 -->
     <g transform="translate(279.537185 426.039801) scale(0.09 -0.09)">
      <defs>
       <path id="DejaVuSans-32" d="M 1228 531 
L 3431 531 
L 3431 0 
L 469 0 
L 469 531 
Q 828 903 1448 1529 
Q 2069 2156 2228 2338 
Q 2531 2678 2651 2914 
Q 2772 3150 2772 3378 
Q 2772 3750 2511 3984 
Q 2250 4219 1831 4219 
Q 1534 4219 1204 4116 
Q 875 4013 500 3803 
L 500 4441 
Q 881 4594 1212 4672 
Q 1544 4750 1819 4750 
Q 2544 4750 2975 4387 
Q 3406 4025 3406 3419 
Q 3406 3131 3298 2873 
Q 3191 2616 2906 2266 
Q 2828 2175 2409 1742 
Q 1991 1309 1228 531 
z
" transform="scale(0.015625)"/>
      </defs>
      <use xlink:href="#DejaVuSans-32"/>
     </g>
    </g>
   </g>
   <g id="text_4">
    <g clip-path="url(#pe6caa5f831)">
     <!-- 3 -->
     <g transform="translate(336.949241 426.039801) scale(0.09 -0.09)">
      <defs>
       <path id="DejaVuSans-33" d="M 2597 2516 
Q 3050 2419 3304 2112 
Q 3559 1806 3559 1356 
Q 3559 666 3084 287 
Q 2609 -91 1734 -91 
Q 1441 -91 1130 -33 
Q 819 25 488 141 
L 488 750 
Q 750 597 1062 519 
Q 1375 441 1716 441 
Q 2309 441 2620 675 
Q 2931 909 2931 1356 
Q 2931 1769 2642 2001 
Q 2353 2234 1838 2234 
L 1294 2234 
L 1294 2753 
L 1863 2753 
Q 2328 2753 2575 2939 
Q 2822 3125 2822 3475 
Q 2822 3834 2567 4026 
Q 2313 4219 1838 4219 
Q 1578 4219 1281 4162 
Q 984 4106 628 3988 
L 628 4550 
Q 988 4650 1302 4700 
Q 1616 4750 1894 4750 
Q 2613 4750 3031 4423 
Q 3450 4097 3450 3541 
Q 3450 3153 3228 2886 
Q 3006 2619 2597 2516 
z
" transform="scale(0.015625)"/>
      </defs>
      <use xlink:href="#DejaVuSans-33"/>
     </g>
    </g>
   </g>
   <g id="text_5">
    <g clip-path="url(#pe6caa5f831)">
     <!-- 4 -->
     <g transform="translate(164.713072 426.039801) scale(0.09 -0.09)">
      <defs>
       <path id="DejaVuSans-34" d="M 2419 4116 
L 825 1625 
L 2419 1625 
L 2419 4116 
z
M 2253 4666 
L 3047 4666 
L 3047 1625 
L 3713 1625 
L 3713 1100 
L 3047 1100 
L 3047 0 
L 2419 0 
L 2419 1100 
L 313 1100 
L 313 1709 
L 2253 4666 
z
" transform="scale(0.015625)"/>
      </defs>
      <use xlink:href="#DejaVuSans-34"/>
     </g>
    </g>
   </g>
   <g id="text_6">
    <g clip-path="url(#pe6caa5f831)">
     <!-- 5 -->
     <g transform="translate(195.01388 408.713598) scale(0.09 -0.09)">
      <defs>
       <path id="DejaVuSans-35" d="M 691 4666 
L 3169 4666 
L 3169 4134 
L 1269 4134 
L 1269 2991 
Q 1406 3038 1543 3061 
Q 1681 3084 1819 3084 
Q 2600 3084 3056 2656 
Q 3513 2228 3513 1497 
Q 3513 744 3044 326 
Q 2575 -91 1722 -91 
Q 1428 -91 1123 -41 
Q 819 9 494 109 
L 494 744 
Q 775 591 1075 516 
Q 1375 441 1709 441 
Q 2250 441 2565 725 
Q 2881 1009 2881 1497 
Q 2881 1984 2565 2268 
Q 2250 2553 1709 2553 
Q 1456 2553 1204 2497 
Q 953 2441 691 2322 
L 691 4666 
z
" transform="scale(0.015625)"/>
      </defs>
      <use xlink:href="#DejaVuSans-35"/>
     </g>
    </g>
   </g>
   <g id="text_7">
    <g clip-path="url(#pe6caa5f831)">
     <!-- 6 -->
     <g transform="translate(252.425936 408.713598) scale(0.09 -0.09)">
      <defs>
       <path id="DejaVuSans-36" d="M 2113 2584 
Q 1688 2584 1439 2293 
Q 1191 2003 1191 1497 
Q 1191 994 1439 701 
Q 1688 409 2113 409 
Q 2538 409 2786 701 
Q 3034 994 3034 1497 
Q 3034 2003 2786 2293 
Q 2538 2584 2113 2584 
z
M 3366 4563 
L 3366 3988 
Q 3128 4100 2886 4159 
Q 2644 4219 2406 4219 
Q 1781 4219 1451 3797 
Q 1122 3375 1075 2522 
Q 1259 2794 1537 2939 
Q 1816 3084 2150 3084 
Q 2853 3084 3261 2657 
Q 3669 2231 3669 1497 
Q 3669 778 3244 343 
Q 2819 -91 2113 -91 
Q 1303 -91 875 529 
Q 447 1150 447 2328 
Q 447 3434 972 4092 
Q 1497 4750 2381 4750 
Q 2619 4750 2861 4703 
Q 3103 4656 3366 4563 
z
" transform="scale(0.015625)"/>
      </defs>
      <use xlink:href="#DejaVuSans-36"/>
     </g>
    </g>
   </g>
   <g id="text_8">
    <g clip-path="url(#pe6caa5f831)">
     <!-- 7 -->
     <g transform="translate(195.01388 391.387395) scale(0.09 -0.09)">
      <defs>
       <path id="DejaVuSans-37" d="M 525 4666 
L 3525 4666 
L 3525 4397 
L 1831 0 
L 1172 0 
L 2766 4134 
L 525 4134 
L 525 4666 
z
" transform="scale(0.015625)"/>
      </defs>
      <use xlink:href="#DejaVuSans-37"/>
     </g>
    </g>
   </g>
   <g id="text_9">
    <g clip-path="url(#pe6caa5f831)">
     <!-- 8 -->
     <g transform="translate(252.425936 374.061192) scale(0.09 -0.09)">
      <defs>
       <path id="DejaVuSans-38" d="M 2034 2216 
Q 1584 2216 1326 1975 
Q 1069 1734 1069 1313 
Q 1069 891 1326 650 
Q 1584 409 2034 409 
Q 2484 409 2743 651 
Q 3003 894 3003 1313 
Q 3003 1734 2745 1975 
Q 2488 2216 2034 2216 
z
M 1403 2484 
Q 997 2584 770 2862 
Q 544 3141 544 3541 
Q 544 4100 942 4425 
Q 1341 4750 2034 4750 
Q 2731 4750 3128 4425 
Q 3525 4100 3525 3541 
Q 3525 3141 3298 2862 
Q 3072 2584 2669 2484 
Q 3125 2378 3379 2068 
Q 3634 1759 3634 1313 
Q 3634 634 3220 271 
Q 2806 -91 2034 -91 
Q 1263 -91 848 271 
Q 434 634 434 1313 
Q 434 1759 690 2068 
Q 947 2378 1403 2484 
z
M 1172 3481 
Q 1172 3119 1398 2916 
Q 1625 2713 2034 2713 
Q 2441 2713 2670 2916 
Q 2900 3119 2900 3481 
Q 2900 3844 2670 4047 
Q 2441 4250 2034 4250 
Q 1625 4250 1398 4047 
Q 1172 3844 1172 3481 
z
" transform="scale(0.015625)"/>
      </defs>
      <use xlink:href="#DejaVuSans-38"/>
     </g>
    </g>
   </g>
   <g id="text_10">
    <g clip-path="url(#pe6caa5f831)">
     <!-- 9 -->
     <g transform="translate(137.601824 356.734988) scale(0.09 -0.09)">
      <defs>
       <path id="DejaVuSans-39" d="M 703 97 
L 703 672 
Q 941 559 1184 500 
Q 1428 441 1663 441 
Q 2288 441 2617 861 
Q 2947 1281 2994 2138 
Q 2813 1869 2534 1725 
Q 2256 1581 1919 1581 
Q 1219 1581 811 2004 
Q 403 2428 403 3163 
Q 403 3881 828 4315 
Q 1253 4750 1959 4750 
Q 2769 4750 3195 4129 
Q 3622 3509 3622 2328 
Q 3622 1225 3098 567 
Q 2575 -91 1691 -91 
Q 1453 -91 1209 -44 
Q 966 3 703 97 
z
M 1959 2075 
Q 2384 2075 2632 2365 
Q 2881 2656 2881 3163 
Q 2881 3666 2632 3958 
Q 2384 4250 1959 4250 
Q 1534 4250 1286 3958 
Q 1038 3666 1038 3163 
Q 1038 2656 1286 2365 
Q 1534 2075 1959 2075 
z
" transform="scale(0.015625)"/>
      </defs>
      <use xlink:href="#DejaVuSans-39"/>
     </g>
    </g>
   </g>
   <g id="text_11">
    <g clip-path="url(#pe6caa5f831)">
     <!-- 10 -->
     <g transform="translate(77.326643 356.734988) scale(0.09 -0.09)">
      <use xlink:href="#DejaVuSans-31"/>
      <use xlink:href="#DejaVuSans-30" x="63.623047"/>
     </g>
    </g>
   </g>
   <g id="text_12">
    <g clip-path="url(#pe6caa5f831)">
     <!-- 11 -->
     <g transform="translate(192.150755 339.408785) scale(0.09 -0.09)">
      <use xlink:href="#DejaVuSans-31"/>
      <use xlink:href="#DejaVuSans-31" x="63.623047"/>
     </g>
    </g>
   </g>
   <g id="text_13">
    <g clip-path="url(#pe6caa5f831)">
     <!-- 12 -->
     <g transform="translate(212.882886 322.082582) scale(0.09 -0.09)">
      <use xlink:href="#DejaVuSans-31"/>
      <use xlink:href="#DejaVuSans-32" x="63.623047"/>
     </g>
    </g>
   </g>
   <g id="text_14">
    <g clip-path="url(#pe6caa5f831)">
     <!-- 13 -->
     <g transform="translate(234.412407 304.756379) scale(0.09 -0.09)">
      <use xlink:href="#DejaVuSans-31"/>
      <use xlink:href="#DejaVuSans-33" x="63.623047"/>
     </g>
    </g>
   </g>
   <g id="text_15">
    <g clip-path="url(#pe6caa5f831)">
     <!-- 14 -->
     <g transform="translate(177.000351 304.756379) scale(0.09 -0.09)">
      <use xlink:href="#DejaVuSans-31"/>
      <use xlink:href="#DejaVuSans-34" x="63.623047"/>
     </g>
    </g>
   </g>
   <g id="text_16">
    <g clip-path="url(#pe6caa5f831)">
     <!-- 15 -->
     <g transform="translate(177.000351 287.430175) scale(0.09 -0.09)">
      <use xlink:href="#DejaVuSans-31"/>
      <use xlink:href="#DejaVuSans-35" x="63.623047"/>
     </g>
    </g>
   </g>
   <g id="text_17">
    <g clip-path="url(#pe6caa5f831)">
     <!-- 16 -->
     <g transform="translate(296.608801 270.103972) scale(0.09 -0.09)">
      <use xlink:href="#DejaVuSans-31"/>
      <use xlink:href="#DejaVuSans-36" x="63.623047"/>
     </g>
    </g>
   </g>
   <g id="text_18">
    <g clip-path="url(#pe6caa5f831)">
     <!-- 17 -->
     <g transform="translate(354.020857 270.103972) scale(0.09 -0.09)">
      <use xlink:href="#DejaVuSans-31"/>
      <use xlink:href="#DejaVuSans-37" x="63.623047"/>
     </g>
    </g>
   </g>
   <g id="text_19">
    <g clip-path="url(#pe6caa5f831)">
     <!-- 18 -->
     <g transform="translate(296.608801 252.777769) scale(0.09 -0.09)">
      <use xlink:href="#DejaVuSans-31"/>
      <use xlink:href="#DejaVuSans-38" x="63.623047"/>
     </g>
    </g>
   </g>
   <g id="text_20">
    <g clip-path="url(#pe6caa5f831)">
     <!-- 19 -->
     <g transform="translate(354.020857 252.777769) scale(0.09 -0.09)">
      <use xlink:href="#DejaVuSans-31"/>
      <use xlink:href="#DejaVuSans-39" x="63.623047"/>
     </g>
    </g>
   </g>
   <g id="text_21">
    <g clip-path="url(#pe6caa5f831)">
     <!-- 20 -->
     <g transform="translate(292.621853 235.451566) scale(0.09 -0.09)">
      <use xlink:href="#DejaVuSans-32"/>
      <use xlink:href="#DejaVuSans-30" x="63.623047"/>
     </g>
    </g>
   </g>
   <g id="text_22">
    <g clip-path="url(#pe6caa5f831)">
     <!-- 21 -->
     <g transform="translate(239.196745 218.125363) scale(0.09 -0.09)">
      <use xlink:href="#DejaVuSans-32"/>
      <use xlink:href="#DejaVuSans-31" x="63.623047"/>
     </g>
    </g>
   </g>
   <g id="text_23">
    <g clip-path="url(#pe6caa5f831)">
     <!-- 22 -->
     <g transform="translate(292.621853 200.799159) scale(0.09 -0.09)">
      <use xlink:href="#DejaVuSans-32"/>
      <use xlink:href="#DejaVuSans-32" x="63.623047"/>
     </g>
    </g>
   </g>
   <g id="text_24">
    <g clip-path="url(#pe6caa5f831)">
     <!-- 23 -->
     <g transform="translate(314.151374 183.472956) scale(0.09 -0.09)">
      <use xlink:href="#DejaVuSans-32"/>
      <use xlink:href="#DejaVuSans-33" x="63.623047"/>
     </g>
    </g>
   </g>
   <g id="text_25">
    <!-- A -->
    <g transform="translate(54 149.52) scale(0.16 -0.16)">
     <defs>
      <path id="DejaVuSerif-41" d="M 1281 1691 
L 2994 1691 
L 2138 3909 
L 1281 1691 
z
M -38 0 
L -38 331 
L 372 331 
L 2034 4666 
L 2559 4666 
L 4225 331 
L 4684 331 
L 4684 0 
L 2988 0 
L 2988 331 
L 3506 331 
L 3116 1356 
L 1153 1356 
L 763 331 
L 1275 331 
L 1275 0 
L -38 0 
z
" transform="scale(0.015625)"/>
     </defs>
     <use xlink:href="#DejaVuSerif-41"/>
    </g>
   </g>
  </g>
  <g id="axes_2">
   <g id="patch_30">
    <path d="M 87.918084 771.146697 
Q 125.655614 735.336429 163.393145 699.526161 
" clip-path="url(#p87cd80c21f)" style="fill: none; stroke: #000000; stroke-width: 2.3; stroke-linecap: round"/>
   </g>
   <g id="patch_31">
    <path d="M 88.060808 771.299272 
Q 158.640315 708.383363 229.219822 645.467454 
" clip-path="url(#p87cd80c21f)" style="fill: none; stroke: #000000; stroke-width: 2.7; stroke-linecap: round"/>
   </g>
   <g id="patch_32">
    <path d="M 209.177116 772.412534 
Q 191.624285 762.288052 174.071453 752.16357 
" clip-path="url(#p87cd80c21f)" style="fill: none; stroke: #000000; stroke-width: 0.95; stroke-linecap: round"/>
   </g>
   <g id="patch_33">
    <path d="M 217.242458 769.443288 
Q 224.607317 748.80988 231.972177 728.176473 
" clip-path="url(#p87cd80c21f)" style="fill: none; stroke: #000000; stroke-width: 4.05; stroke-linecap: round"/>
   </g>
   <g id="patch_34">
    <path d="M 276.558521 770.693496 
Q 257.590155 748.811571 238.621789 726.929645 
" clip-path="url(#p87cd80c21f)" style="fill: none; stroke: #000000; stroke-width: 5; stroke-linecap: round"/>
   </g>
   <g id="patch_35">
    <path d="M 344.508416 769.50333 
Q 315.769143 694.90761 287.02987 620.31189 
" clip-path="url(#p87cd80c21f)" style="fill: none; stroke: #000000; stroke-width: 3.7; stroke-linecap: round"/>
   </g>
   <g id="patch_36">
    <path d="M 346.497672 769.070281 
Q 340.964927 681.432542 335.432181 593.794803 
" clip-path="url(#p87cd80c21f)" style="fill: none; stroke: #000000; stroke-width: 0.2; stroke-linecap: round"/>
   </g>
   <g id="patch_37">
    <path d="M 347.274286 769.067814 
Q 353.333604 654.481167 359.392922 539.89452 
" clip-path="url(#p87cd80c21f)" style="fill: none; stroke: #000000; stroke-width: 1.1; stroke-linecap: round"/>
   </g>
   <g id="patch_38">
    <path d="M 152.916173 770.305274 
Q 158.639222 762.288419 164.362272 754.271565 
" clip-path="url(#p87cd80c21f)" style="fill: none; stroke: #000000; stroke-width: 5; stroke-linecap: round"/>
   </g>
   <g id="patch_39">
    <path d="M 168.260051 742.103193 
Q 168.260051 721.859933 168.260051 701.616673 
" clip-path="url(#p87cd80c21f)" style="fill: none; stroke: #000000; stroke-width: 5; stroke-linecap: round"/>
   </g>
   <g id="patch_40">
    <path d="M 234.226884 715.151321 
Q 234.226884 694.908061 234.226884 674.664801 
" clip-path="url(#p87cd80c21f)" style="fill: none; stroke: #000000; stroke-width: 5; stroke-linecap: round"/>
   </g>
   <g id="patch_41">
    <path d="M 174.472626 692.369554 
Q 201.244241 681.431556 228.015855 670.493557 
" clip-path="url(#p87cd80c21f)" style="fill: none; stroke: #000000; stroke-width: 5; stroke-linecap: round"/>
   </g>
   <g id="patch_42">
    <path d="M 234.226884 661.247578 
Q 234.226884 654.479147 234.226884 647.710717 
" clip-path="url(#p87cd80c21f)" style="fill: none; stroke: #000000; stroke-width: 4.3; stroke-linecap: round"/>
   </g>
   <g id="patch_43">
    <path d="M 239.458552 663.758688 
Q 284.616952 627.529141 329.775352 591.299594 
" clip-path="url(#p87cd80c21f)" style="fill: none; stroke: #000000; stroke-width: 0.7; stroke-linecap: round"/>
   </g>
   <g id="patch_44">
    <path d="M 240.141345 637.840707 
Q 259.422166 627.528334 278.702986 617.21596 
" clip-path="url(#p87cd80c21f)" style="fill: none; stroke: #000000; stroke-width: 4.3; stroke-linecap: round"/>
   </g>
   <g id="patch_45">
    <path d="M 289.197847 609.153348 
Q 309.812272 587.102041 330.426698 565.050734 
" clip-path="url(#p87cd80c21f)" style="fill: none; stroke: #000000; stroke-width: 1.6; stroke-linecap: round"/>
   </g>
   <g id="patch_46">
    <path d="M 335.009545 580.391963 
Q 335.009545 573.623532 335.009545 566.855102 
" clip-path="url(#p87cd80c21f)" style="fill: none; stroke: #000000; stroke-width: 0.5; stroke-linecap: round"/>
   </g>
   <g id="patch_47">
    <path d="M 339.548187 555.203544 
Q 347.380447 546.670203 355.212706 538.136862 
" clip-path="url(#p87cd80c21f)" style="fill: none; stroke: #000000; stroke-width: 1.1; stroke-linecap: round"/>
   </g>
   <g id="PathCollection_3">
    <defs>
     <path id="C1_0_794c57c79a" d="M 0 6.708204 
C 1.779036 6.708204 3.485448 6.001385 4.743416 4.743416 
C 6.001385 3.485448 6.708204 1.779036 6.708204 -0 
C 6.708204 -1.779036 6.001385 -3.485448 4.743416 -4.743416 
C 3.485448 -6.001385 1.779036 -6.708204 0 -6.708204 
C -1.779036 -6.708204 -3.485448 -6.001385 -4.743416 -4.743416 
C -6.001385 -3.485448 -6.708204 -1.779036 -6.708204 0 
C -6.708204 1.779036 -6.001385 3.485448 -4.743416 4.743416 
C -3.485448 6.001385 -1.779036 6.708204 0 6.708204 
z
"/>
    </defs>
    <g clip-path="url(#p87cd80c21f)">
     <use xlink:href="#C1_0_794c57c79a" x="168.260051" y="748.811551" style="fill: #deefe6; stroke: #51ad79; stroke-width: 2"/>
    </g>
    <g clip-path="url(#p87cd80c21f)">
     <use xlink:href="#C1_0_794c57c79a" x="234.226884" y="721.859679" style="fill: #71bd93; stroke: #51ad79; stroke-width: 2"/>
    </g>
    <g clip-path="url(#p87cd80c21f)">
     <use xlink:href="#C1_0_794c57c79a" x="168.260051" y="694.907807" style="fill: #afd9c2; stroke: #51ad79; stroke-width: 2"/>
    </g>
    <g clip-path="url(#p87cd80c21f)">
     <use xlink:href="#C1_0_794c57c79a" x="234.226884" y="667.955936" style="fill: #51ad79; stroke: #51ad79; stroke-width: 2"/>
    </g>
    <g clip-path="url(#p87cd80c21f)">
     <use xlink:href="#C1_0_794c57c79a" x="234.226884" y="641.004064" style="fill: #91ccab; stroke: #51ad79; stroke-width: 2"/>
    </g>
    <g clip-path="url(#p87cd80c21f)">
     <use xlink:href="#C1_0_794c57c79a" x="284.618215" y="614.052193" style="fill: #8bc8a6; stroke: #51ad79; stroke-width: 2"/>
    </g>
    <g clip-path="url(#p87cd80c21f)">
     <use xlink:href="#C1_0_794c57c79a" x="335.009545" y="587.100321" style="fill: #cde8d9; stroke: #51ad79; stroke-width: 2"/>
    </g>
    <g clip-path="url(#p87cd80c21f)">
     <use xlink:href="#C1_0_794c57c79a" x="335.009545" y="560.148449" style="fill: #c8e5d5; stroke: #51ad79; stroke-width: 2"/>
    </g>
    <g clip-path="url(#p87cd80c21f)">
     <use xlink:href="#C1_0_794c57c79a" x="359.747107" y="533.196578" style="fill: #51ad79; stroke: #51ad79; stroke-width: 2"/>
    </g>
   </g>
   <g id="PathCollection_4">
    <path d="M 77.052893 781.763422 
L 89.052893 781.763422 
L 89.052893 769.763422 
L 77.052893 769.763422 
z
" clip-path="url(#p87cd80c21f)" style="fill: #ffffff; stroke: #51ad79; stroke-width: 2"/>
    <path d="M 208.986558 781.763422 
L 220.986558 781.763422 
L 220.986558 769.763422 
L 208.986558 769.763422 
z
" clip-path="url(#p87cd80c21f)" style="fill: #ffffff; stroke: #51ad79; stroke-width: 2"/>
    <path d="M 274.953391 781.763422 
L 286.953391 781.763422 
L 286.953391 769.763422 
L 274.953391 769.763422 
z
" clip-path="url(#p87cd80c21f)" style="fill: #ffffff; stroke: #51ad79; stroke-width: 2"/>
    <path d="M 340.920223 781.763422 
L 352.920223 781.763422 
L 352.920223 769.763422 
L 340.920223 769.763422 
z
" clip-path="url(#p87cd80c21f)" style="fill: #ffffff; stroke: #51ad79; stroke-width: 2"/>
    <path d="M 143.019725 781.763422 
L 155.019725 781.763422 
L 155.019725 769.763422 
L 143.019725 769.763422 
z
" clip-path="url(#p87cd80c21f)" style="fill: #ffffff; stroke: #51ad79; stroke-width: 2"/>
   </g>
   <g id="text_26">
    <g clip-path="url(#p87cd80c21f)">
     <!-- 0 -->
     <g transform="translate(80.189768 778.24686) scale(0.09 -0.09)">
      <use xlink:href="#DejaVuSans-30"/>
     </g>
    </g>
   </g>
   <g id="text_27">
    <g clip-path="url(#p87cd80c21f)">
     <!-- 1 -->
     <g transform="translate(212.123433 778.24686) scale(0.09 -0.09)">
      <use xlink:href="#DejaVuSans-31"/>
     </g>
    </g>
   </g>
   <g id="text_28">
    <g clip-path="url(#p87cd80c21f)">
     <!-- 2 -->
     <g transform="translate(278.090266 778.24686) scale(0.09 -0.09)">
      <use xlink:href="#DejaVuSans-32"/>
     </g>
    </g>
   </g>
   <g id="text_29">
    <g clip-path="url(#p87cd80c21f)">
     <!-- 3 -->
     <g transform="translate(344.057098 778.24686) scale(0.09 -0.09)">
      <use xlink:href="#DejaVuSans-33"/>
     </g>
    </g>
   </g>
   <g id="text_30">
    <g clip-path="url(#p87cd80c21f)">
     <!-- 4 -->
     <g transform="translate(146.1566 778.24686) scale(0.09 -0.09)">
      <use xlink:href="#DejaVuSans-34"/>
     </g>
    </g>
   </g>
   <g id="text_31">
    <g clip-path="url(#p87cd80c21f)">
     <!-- 5 -->
     <g transform="translate(165.396926 751.294988) scale(0.09 -0.09)">
      <use xlink:href="#DejaVuSans-35"/>
     </g>
    </g>
   </g>
   <g id="text_32">
    <g clip-path="url(#p87cd80c21f)">
     <!-- 6 -->
     <g transform="translate(231.363759 724.343117) scale(0.09 -0.09)">
      <use xlink:href="#DejaVuSans-36"/>
     </g>
    </g>
   </g>
   <g id="text_33">
    <g clip-path="url(#p87cd80c21f)">
     <!-- 7 -->
     <g transform="translate(165.396926 697.391245) scale(0.09 -0.09)">
      <use xlink:href="#DejaVuSans-37"/>
     </g>
    </g>
   </g>
   <g id="text_34">
    <g clip-path="url(#p87cd80c21f)">
     <!-- 8 -->
     <g transform="translate(231.363759 670.439373) scale(0.09 -0.09)">
      <use xlink:href="#DejaVuSans-38"/>
     </g>
    </g>
   </g>
   <g id="text_35">
    <g clip-path="url(#p87cd80c21f)">
     <!-- 9 -->
     <g transform="translate(231.363759 643.487502) scale(0.09 -0.09)">
      <use xlink:href="#DejaVuSans-39"/>
     </g>
    </g>
   </g>
   <g id="text_36">
    <g clip-path="url(#p87cd80c21f)">
     <!-- 10 -->
     <g transform="translate(278.891965 616.53563) scale(0.09 -0.09)">
      <use xlink:href="#DejaVuSans-31"/>
      <use xlink:href="#DejaVuSans-30" x="63.623047"/>
     </g>
    </g>
   </g>
   <g id="text_37">
    <g clip-path="url(#p87cd80c21f)">
     <!-- 11 -->
     <g transform="translate(329.283295 589.583758) scale(0.09 -0.09)">
      <use xlink:href="#DejaVuSans-31"/>
      <use xlink:href="#DejaVuSans-31" x="63.623047"/>
     </g>
    </g>
   </g>
   <g id="text_38">
    <g clip-path="url(#p87cd80c21f)">
     <!-- 12 -->
     <g transform="translate(329.283295 562.631887) scale(0.09 -0.09)">
      <use xlink:href="#DejaVuSans-31"/>
      <use xlink:href="#DejaVuSans-32" x="63.623047"/>
     </g>
    </g>
   </g>
   <g id="text_39">
    <g clip-path="url(#p87cd80c21f)">
     <!-- 13 -->
     <g transform="translate(354.020857 535.680015) scale(0.09 -0.09)">
      <use xlink:href="#DejaVuSans-31"/>
      <use xlink:href="#DejaVuSans-33" x="63.623047"/>
     </g>
    </g>
   </g>
   <g id="text_40">
    <!-- B -->
    <g transform="translate(54 501.727059) scale(0.16 -0.16)">
     <defs>
      <path id="DejaVuSerif-42" d="M 1581 331 
L 2516 331 
Q 3078 331 3337 575 
Q 3597 819 3597 1350 
Q 3597 1878 3339 2120 
Q 3081 2363 2516 2363 
L 1581 2363 
L 1581 331 
z
M 1581 2694 
L 2375 2694 
Q 2888 2694 3123 2891 
Q 3359 3088 3359 3513 
Q 3359 3941 3123 4136 
Q 2888 4331 2375 4331 
L 1581 4331 
L 1581 2694 
z
M 353 0 
L 353 331 
L 947 331 
L 947 4331 
L 353 4331 
L 353 4666 
L 2656 4666 
Q 3363 4666 3720 4377 
Q 4078 4088 4078 3513 
Q 4078 3097 3829 2850 
Q 3581 2603 3103 2547 
Q 3697 2472 4005 2167 
Q 4313 1863 4313 1350 
Q 4313 656 3875 328 
Q 3438 0 2509 0 
L 353 0 
z
" transform="scale(0.015625)"/>
     </defs>
     <use xlink:href="#DejaVuSerif-42"/>
    </g>
   </g>
  </g>
  <g id="axes_3">
   <g id="patch_48">
    <path d="M 285.308227 1123.816169 
Q 259.830792 1103.714618 234.353357 1083.613066 
" clip-path="url(#p0f99d92a3a)" style="fill: none; stroke: #000000; stroke-width: 3.6; stroke-linecap: round"/>
   </g>
   <g id="patch_49">
    <path d="M 290.109513 1121.275613 
Q 283.848269 1030.942611 277.587024 940.609609 
" clip-path="url(#p0f99d92a3a)" style="fill: none; stroke: #000000; stroke-width: 1.4; stroke-linecap: round"/>
   </g>
   <g id="patch_50">
    <path d="M 153.275852 1121.346677 
Q 156.069366 1103.714146 158.86288 1086.081616 
" clip-path="url(#p0f99d92a3a)" style="fill: none; stroke: #000000; stroke-width: 5; stroke-linecap: round"/>
   </g>
   <g id="patch_51">
    <path d="M 87.281288 1122.762786 
Q 142.137786 1055.201475 196.994285 987.640164 
" clip-path="url(#p0f99d92a3a)" style="fill: none; stroke: #000000; stroke-width: 5; stroke-linecap: round"/>
   </g>
   <g id="patch_52">
    <path d="M 358.220511 1121.437729 
Q 331.404808 1006.685528 304.589105 891.933327 
" clip-path="url(#p0f99d92a3a)" style="fill: none; stroke: #000000; stroke-width: 5; stroke-linecap: round"/>
   </g>
   <g id="patch_53">
    <path d="M 216.134674 1123.816169 
Q 190.657239 1103.714618 165.179804 1083.613066 
" clip-path="url(#p0f99d92a3a)" style="fill: none; stroke: #000000; stroke-width: 1.3; stroke-linecap: round"/>
   </g>
   <g id="patch_54">
    <path d="M 222.449406 1121.346677 
Q 225.24292 1103.714146 228.036433 1086.081616 
" clip-path="url(#p0f99d92a3a)" style="fill: none; stroke: #000000; stroke-width: 3.7; stroke-linecap: round"/>
   </g>
   <g id="patch_55">
    <path d="M 165.114979 1075.219891 
Q 189.697025 1055.199149 214.27907 1035.178407 
" clip-path="url(#p0f99d92a3a)" style="fill: none; stroke: #000000; stroke-width: 5; stroke-linecap: round"/>
   </g>
   <g id="patch_56">
    <path d="M 227.782402 1072.874762 
Q 224.281986 1055.19919 220.78157 1037.523617 
" clip-path="url(#p0f99d92a3a)" style="fill: none; stroke: #000000; stroke-width: 5; stroke-linecap: round"/>
   </g>
   <g id="patch_57">
    <path d="M 217.115413 1024.663418 
Q 210.350764 1006.685246 203.586115 988.707075 
" clip-path="url(#p0f99d92a3a)" style="fill: none; stroke: #000000; stroke-width: 3.7; stroke-linecap: round"/>
   </g>
   <g id="patch_58">
    <path d="M 222.903625 1025.178635 
Q 248.299994 982.431775 273.696364 939.684914 
" clip-path="url(#p0f99d92a3a)" style="fill: none; stroke: #000000; stroke-width: 1.3; stroke-linecap: round"/>
   </g>
   <g id="patch_59">
    <path d="M 206.878338 978.816448 
Q 239.174269 958.173365 271.4702 937.530281 
" clip-path="url(#p0f99d92a3a)" style="fill: none; stroke: #000000; stroke-width: 5; stroke-linecap: round"/>
   </g>
   <g id="patch_60">
    <path d="M 280.284905 928.003846 
Q 290.092622 909.661367 299.90034 891.318888 
" clip-path="url(#p0f99d92a3a)" style="fill: none; stroke: #000000; stroke-width: 5; stroke-linecap: round"/>
   </g>
   <g id="PathCollection_5">
    <defs>
     <path id="C2_0_bfa31b53ea" d="M 0 6.708204 
C 1.779036 6.708204 3.485448 6.001385 4.743416 4.743416 
C 6.001385 3.485448 6.708204 1.779036 6.708204 -0 
C 6.708204 -1.779036 6.001385 -3.485448 4.743416 -4.743416 
C 3.485448 -6.001385 1.779036 -6.708204 0 -6.708204 
C -1.779036 -6.708204 -3.485448 -6.001385 -4.743416 -4.743416 
C -6.001385 -3.485448 -6.708204 -1.779036 -6.708204 0 
C -6.708204 1.779036 -6.001385 3.485448 -4.743416 4.743416 
C -3.485448 6.001385 -1.779036 6.708204 0 6.708204 
z
"/>
    </defs>
    <g clip-path="url(#p0f99d92a3a)">
     <use xlink:href="#C2_0_bfa31b53ea" x="159.912397" y="1079.457112" style="fill: #d2eadc; stroke: #51ad79; stroke-width: 2"/>
    </g>
    <g clip-path="url(#p0f99d92a3a)">
     <use xlink:href="#C2_0_bfa31b53ea" x="229.08595" y="1079.457112" style="fill: #afd9c2; stroke: #51ad79; stroke-width: 2"/>
    </g>
    <g clip-path="url(#p0f99d92a3a)">
     <use xlink:href="#C2_0_bfa31b53ea" x="219.478512" y="1030.943743" style="fill: #51ad79; stroke: #51ad79; stroke-width: 2"/>
    </g>
    <g clip-path="url(#p0f99d92a3a)">
     <use xlink:href="#C2_0_bfa31b53ea" x="201.22438" y="982.430374" style="fill: #7ec29c; stroke: #51ad79; stroke-width: 2"/>
    </g>
    <g clip-path="url(#p0f99d92a3a)">
     <use xlink:href="#C2_0_bfa31b53ea" x="277.12314" y="933.917005" style="fill: #a1d3b7; stroke: #51ad79; stroke-width: 2"/>
    </g>
    <g clip-path="url(#p0f99d92a3a)">
     <use xlink:href="#C2_0_bfa31b53ea" x="303.063223" y="885.403636" style="fill: #51ad79; stroke: #51ad79; stroke-width: 2"/>
    </g>
   </g>
   <g id="PathCollection_6">
    <path d="M 284.573554 1133.970481 
L 296.573554 1133.970481 
L 296.573554 1121.970481 
L 284.573554 1121.970481 
z
" clip-path="url(#p0f99d92a3a)" style="fill: #ffffff; stroke: #51ad79; stroke-width: 2"/>
    <path d="M 146.226446 1133.970481 
L 158.226446 1133.970481 
L 158.226446 1121.970481 
L 146.226446 1121.970481 
z
" clip-path="url(#p0f99d92a3a)" style="fill: #ffffff; stroke: #51ad79; stroke-width: 2"/>
    <path d="M 77.052893 1133.970481 
L 89.052893 1133.970481 
L 89.052893 1121.970481 
L 77.052893 1121.970481 
z
" clip-path="url(#p0f99d92a3a)" style="fill: #ffffff; stroke: #51ad79; stroke-width: 2"/>
    <path d="M 353.747107 1133.970481 
L 365.747107 1133.970481 
L 365.747107 1121.970481 
L 353.747107 1121.970481 
z
" clip-path="url(#p0f99d92a3a)" style="fill: #ffffff; stroke: #51ad79; stroke-width: 2"/>
    <path d="M 215.4 1133.970481 
L 227.4 1133.970481 
L 227.4 1121.970481 
L 215.4 1121.970481 
z
" clip-path="url(#p0f99d92a3a)" style="fill: #ffffff; stroke: #51ad79; stroke-width: 2"/>
   </g>
   <g id="text_41">
    <g clip-path="url(#p0f99d92a3a)">
     <!-- 0 -->
     <g transform="translate(287.710429 1130.453919) scale(0.09 -0.09)">
      <use xlink:href="#DejaVuSans-30"/>
     </g>
    </g>
   </g>
   <g id="text_42">
    <g clip-path="url(#p0f99d92a3a)">
     <!-- 1 -->
     <g transform="translate(149.363321 1130.453919) scale(0.09 -0.09)">
      <use xlink:href="#DejaVuSans-31"/>
     </g>
    </g>
   </g>
   <g id="text_43">
    <g clip-path="url(#p0f99d92a3a)">
     <!-- 2 -->
     <g transform="translate(80.189768 1130.453919) scale(0.09 -0.09)">
      <use xlink:href="#DejaVuSans-32"/>
     </g>
    </g>
   </g>
   <g id="text_44">
    <g clip-path="url(#p0f99d92a3a)">
     <!-- 3 -->
     <g transform="translate(356.883982 1130.453919) scale(0.09 -0.09)">
      <use xlink:href="#DejaVuSans-33"/>
     </g>
    </g>
   </g>
   <g id="text_45">
    <g clip-path="url(#p0f99d92a3a)">
     <!-- 4 -->
     <g transform="translate(218.536875 1130.453919) scale(0.09 -0.09)">
      <use xlink:href="#DejaVuSans-34"/>
     </g>
    </g>
   </g>
   <g id="text_46">
    <g clip-path="url(#p0f99d92a3a)">
     <!-- 5 -->
     <g transform="translate(157.049272 1081.94055) scale(0.09 -0.09)">
      <use xlink:href="#DejaVuSans-35"/>
     </g>
    </g>
   </g>
   <g id="text_47">
    <g clip-path="url(#p0f99d92a3a)">
     <!-- 6 -->
     <g transform="translate(226.222825 1081.94055) scale(0.09 -0.09)">
      <use xlink:href="#DejaVuSans-36"/>
     </g>
    </g>
   </g>
   <g id="text_48">
    <g clip-path="url(#p0f99d92a3a)">
     <!-- 7 -->
     <g transform="translate(216.615387 1033.427181) scale(0.09 -0.09)">
      <use xlink:href="#DejaVuSans-37"/>
     </g>
    </g>
   </g>
   <g id="text_49">
    <g clip-path="url(#p0f99d92a3a)">
     <!-- 8 -->
     <g transform="translate(198.361255 984.913812) scale(0.09 -0.09)">
      <use xlink:href="#DejaVuSans-38"/>
     </g>
    </g>
   </g>
   <g id="text_50">
    <g clip-path="url(#p0f99d92a3a)">
     <!-- 9 -->
     <g transform="translate(274.260015 936.400443) scale(0.09 -0.09)">
      <use xlink:href="#DejaVuSans-39"/>
     </g>
    </g>
   </g>
   <g id="text_51">
    <g clip-path="url(#p0f99d92a3a)">
     <!-- 10 -->
     <g transform="translate(297.336973 887.887074) scale(0.09 -0.09)">
      <use xlink:href="#DejaVuSans-31"/>
      <use xlink:href="#DejaVuSans-30" x="63.623047"/>
     </g>
    </g>
   </g>
   <g id="text_52">
    <!-- C -->
    <g transform="translate(54 853.934118) scale(0.16 -0.16)">
     <defs>
      <path id="DejaVuSerif-43" d="M 4513 1234 
Q 4306 581 3820 245 
Q 3334 -91 2591 -91 
Q 2134 -91 1743 65 
Q 1353 222 1050 525 
Q 700 875 529 1320 
Q 359 1766 359 2328 
Q 359 3416 987 4083 
Q 1616 4750 2644 4750 
Q 3025 4750 3456 4650 
Q 3888 4550 4384 4347 
L 4384 3272 
L 4031 3272 
Q 3916 3859 3567 4137 
Q 3219 4416 2591 4416 
Q 1844 4416 1459 3886 
Q 1075 3356 1075 2328 
Q 1075 1303 1459 773 
Q 1844 244 2591 244 
Q 3113 244 3450 492 
Q 3788 741 3938 1234 
L 4513 1234 
z
" transform="scale(0.015625)"/>
     </defs>
     <use xlink:href="#DejaVuSerif-43"/>
    </g>
   </g>
  </g>
 </g>
 <defs>
  <clipPath id="pe6caa5f831">
   <rect x="54" y="155.52" width="334.8" height="293.505882"/>
  </clipPath>
  <clipPath id="p87cd80c21f">
   <rect x="54" y="507.727059" width="334.8" height="293.505882"/>
  </clipPath>
  <clipPath id="p0f99d92a3a">
   <rect x="54" y="859.934118" width="334.8" height="293.505882"/>
  </clipPath>
 </defs>
</svg>
