<?xml version="1.0" encoding="utf-8" standalone="no"?>
<!DOCTYPE svg PUBLIC "-//W3C//DTD SVG 1.1//EN"
  "http://www.w3.org/Graphics/SVG/1.1/DTD/svg11.dtd">
<svg xmlns:xlink="http://www.w3.org/1999/xlink" width="360pt" height="360pt" viewBox="0 0 360 360" xmlns="http://www.w3.org/2000/svg" version="1.1">
 <metadata>
  <rdf:RDF xmlns:dc="http://purl.org/dc/elements/1.1/" xmlns:cc="http://creativecommons.org/ns#" xmlns:rdf="http://www.w3.org/1999/02/22-rdf-syntax-ns#">
   <cc:Work>
    <dc:type rdf:resource="http://purl.org/dc/dcmitype/StillImage"/>
    <dc:date>2023-11-02T16:56:00.367607</dc:date>
    <dc:format>image/svg+xml</dc:format>
    <dc:creator>
     <cc:Agent>
      <dc:title>Matplotlib v3.6.2, https://matplotlib.org/</dc:title>
     </cc:Agent>
    </dc:creator>
   </cc:Work>
  </rdf:RDF>
 </metadata>
 <defs>
  <style type="text/css">*{stroke-linejoin: round; stroke-linecap: butt}</style>
 </defs>
 <g id="figure_1">
  <g id="patch_1">
   <path d="M 0 360 
L 360 360 
L 360 0 
L 0 0 
z
" style="fill: #ffffff"/>
  </g>
  <g id="axes_1">
   <g id="patch_2">
    <path d="M 294.072406 292.838153 
Q 268.670964 277.254302 243.269521 261.670452 
" clip-path="url(#p2ea6ed1503)" style="fill: none; stroke: #000000; stroke-width: 5; stroke-linecap: round"/>
   </g>
   <g id="patch_3">
    <path d="M 228.222553 289.908798 
Q 231.942046 277.254522 235.661539 264.600247 
" clip-path="url(#p2ea6ed1503)" style="fill: none; stroke: #000000; stroke-width: 5; stroke-linecap: round"/>
   </g>
   <g id="patch_4">
    <path d="M 150.597128 290.039302 
Q 139.098642 258.164088 127.600155 226.288873 
" clip-path="url(#p2ea6ed1503)" style="fill: none; stroke: #000000; stroke-width: 2.55; stroke-linecap: round"/>
   </g>
   <g id="patch_5">
    <path d="M 156.272941 290.560154 
Q 186.540552 239.07267 216.808163 187.585185 
" clip-path="url(#p2ea6ed1503)" style="fill: none; stroke: #000000; stroke-width: 2.45; stroke-linecap: round"/>
   </g>
   <g id="patch_6">
    <path d="M 82.869877 290.596276 
Q 102.369712 258.162716 121.869546 225.729156 
" clip-path="url(#p2ea6ed1503)" style="fill: none; stroke: #000000; stroke-width: 3.75; stroke-linecap: round"/>
   </g>
   <g id="patch_7">
    <path d="M 79.055426 289.648372 
Q 74.31207 200.891498 69.568713 112.134624 
" clip-path="url(#p2ea6ed1503)" style="fill: none; stroke: #000000; stroke-width: 1.25; stroke-linecap: round"/>
   </g>
   <g id="patch_8">
    <path d="M 236.068222 251.624441 
Q 228.881556 219.98311 221.69489 188.34178 
" clip-path="url(#p2ea6ed1503)" style="fill: none; stroke: #000000; stroke-width: 5; stroke-linecap: round"/>
   </g>
   <g id="patch_9">
    <path d="M 129.296203 214.577544 
Q 153.381002 181.801499 177.4658 149.025455 
" clip-path="url(#p2ea6ed1503)" style="fill: none; stroke: #000000; stroke-width: 2.8; stroke-linecap: round"/>
   </g>
   <g id="patch_10">
    <path d="M 124.091382 213.386692 
Q 111.041417 143.618492 97.991452 73.850293 
" clip-path="url(#p2ea6ed1503)" style="fill: none; stroke: #000000; stroke-width: 0.95; stroke-linecap: round"/>
   </g>
   <g id="patch_11">
    <path d="M 215.431455 177.094855 
Q 200.824381 162.709326 186.217306 148.323796 
" clip-path="url(#p2ea6ed1503)" style="fill: none; stroke: #000000; stroke-width: 5; stroke-linecap: round"/>
   </g>
   <g id="patch_12">
    <path d="M 175.085957 141.456705 
Q 125.322862 124.526551 75.559767 107.596397 
" clip-path="url(#p2ea6ed1503)" style="fill: none; stroke: #000000; stroke-width: 2.2; stroke-linecap: round"/>
   </g>
   <g id="patch_13">
    <path d="M 73.136661 99.994802 
Q 82.985022 86.344369 92.833384 72.693936 
" clip-path="url(#p2ea6ed1503)" style="fill: none; stroke: #000000; stroke-width: 0.95; stroke-linecap: round"/>
   </g>
   <g id="PathCollection_1">
    <defs>
     <path id="C0_0_4e0067520d" d="M 0 6.708204 
C 1.779036 6.708204 3.485448 6.001385 4.743416 4.743416 
C 6.001385 3.485448 6.708204 1.779036 6.708204 -0 
C 6.708204 -1.779036 6.001385 -3.485448 4.743416 -4.743416 
C 3.485448 -6.001385 1.779036 -6.708204 0 -6.708204 
C -1.779036 -6.708204 -3.485448 -6.001385 -4.743416 -4.743416 
C -6.001385 -3.485448 -6.708204 -1.779036 -6.708204 0 
C -6.708204 1.779036 -6.001385 3.485448 -4.743416 4.743416 
C -3.485448 6.001385 -1.779036 6.708204 0 6.708204 
z
"/>
    </defs>
    <g clip-path="url(#p2ea6ed1503)">
     <use xlink:href="#C0_0_4e0067520d" x="237.553463" y="258.163636" style="fill: #51ad79; stroke: #51ad79; stroke-width: 2"/>
    </g>
    <g clip-path="url(#p2ea6ed1503)">
     <use xlink:href="#C0_0_4e0067520d" x="125.324984" y="219.981818" style="fill: #88c7a4; stroke: #51ad79; stroke-width: 2"/>
    </g>
    <g clip-path="url(#p2ea6ed1503)">
     <use xlink:href="#C0_0_4e0067520d" x="220.209062" y="181.8" style="fill: #a9d7bd; stroke: #51ad79; stroke-width: 2"/>
    </g>
    <g clip-path="url(#p2ea6ed1503)">
     <use xlink:href="#C0_0_4e0067520d" x="181.439223" y="143.618182" style="fill: #9dd1b4; stroke: #51ad79; stroke-width: 2"/>
    </g>
    <g clip-path="url(#p2ea6ed1503)">
     <use xlink:href="#C0_0_4e0067520d" x="69.210744" y="105.436364" style="fill: #9cd1b3; stroke: #51ad79; stroke-width: 2"/>
    </g>
    <g clip-path="url(#p2ea6ed1503)">
     <use xlink:href="#C0_0_4e0067520d" x="96.757734" y="67.254545" style="fill: #51ad79; stroke: #51ad79; stroke-width: 2"/>
    </g>
   </g>
   <g id="PathCollection_2">
    <path d="M 293.789256 302.345455 
L 305.789256 302.345455 
L 305.789256 290.345455 
L 293.789256 290.345455 
z
" clip-path="url(#p2ea6ed1503)" style="fill: #ffffff; stroke: #51ad79; stroke-width: 2"/>
    <path d="M 220.330615 302.345455 
L 232.330615 302.345455 
L 232.330615 290.345455 
L 220.330615 290.345455 
z
" clip-path="url(#p2ea6ed1503)" style="fill: #ffffff; stroke: #51ad79; stroke-width: 2"/>
    <path d="M 146.871974 302.345455 
L 158.871974 302.345455 
L 158.871974 290.345455 
L 146.871974 290.345455 
z
" clip-path="url(#p2ea6ed1503)" style="fill: #ffffff; stroke: #51ad79; stroke-width: 2"/>
    <path d="M 73.413333 302.345455 
L 85.413333 302.345455 
L 85.413333 290.345455 
L 73.413333 290.345455 
z
" clip-path="url(#p2ea6ed1503)" style="fill: #ffffff; stroke: #51ad79; stroke-width: 2"/>
   </g>
   <g id="text_1">
    <g clip-path="url(#p2ea6ed1503)">
     <!-- 0 -->
     <g transform="translate(296.926131 298.828892) scale(0.09 -0.09)">
      <defs>
       <path id="DejaVuSans-30" d="M 2034 4250 
Q 1547 4250 1301 3770 
Q 1056 3291 1056 2328 
Q 1056 1369 1301 889 
Q 1547 409 2034 409 
Q 2525 409 2770 889 
Q 3016 1369 3016 2328 
Q 3016 3291 2770 3770 
Q 2525 4250 2034 4250 
z
M 2034 4750 
Q 2819 4750 3233 4129 
Q 3647 3509 3647 2328 
Q 3647 1150 3233 529 
Q 2819 -91 2034 -91 
Q 1250 -91 836 529 
Q 422 1150 422 2328 
Q 422 3509 836 4129 
Q 1250 4750 2034 4750 
z
" transform="scale(0.015625)"/>
      </defs>
      <use xlink:href="#DejaVuSans-30"/>
     </g>
    </g>
   </g>
   <g id="text_2">
    <g clip-path="url(#p2ea6ed1503)">
     <!-- 1 -->
     <g transform="translate(223.46749 298.828892) scale(0.09 -0.09)">
      <defs>
       <path id="DejaVuSans-31" d="M 794 531 
L 1825 531 
L 1825 4091 
L 703 3866 
L 703 4441 
L 1819 4666 
L 2450 4666 
L 2450 531 
L 3481 531 
L 3481 0 
L 794 0 
L 794 531 
z
" transform="scale(0.015625)"/>
      </defs>
      <use xlink:href="#DejaVuSans-31"/>
     </g>
    </g>
   </g>
   <g id="text_3">
    <g clip-path="url(#p2ea6ed1503)">
     <!-- 2 -->
     <g transform="translate(150.008849 298.828892) scale(0.09 -0.09)">
      <defs>
       <path id="DejaVuSans-32" d="M 1228 531 
L 3431 531 
L 3431 0 
L 469 0 
L 469 531 
Q 828 903 1448 1529 
Q 2069 2156 2228 2338 
Q 2531 2678 2651 2914 
Q 2772 3150 2772 3378 
Q 2772 3750 2511 3984 
Q 2250 4219 1831 4219 
Q 1534 4219 1204 4116 
Q 875 4013 500 3803 
L 500 4441 
Q 881 4594 1212 4672 
Q 1544 4750 1819 4750 
Q 2544 4750 2975 4387 
Q 3406 4025 3406 3419 
Q 3406 3131 3298 2873 
Q 3191 2616 2906 2266 
Q 2828 2175 2409 1742 
Q 1991 1309 1228 531 
z
" transform="scale(0.015625)"/>
      </defs>
      <use xlink:href="#DejaVuSans-32"/>
     </g>
    </g>
   </g>
   <g id="text_4">
    <g clip-path="url(#p2ea6ed1503)">
     <!-- 3 -->
     <g transform="translate(76.550208 298.828892) scale(0.09 -0.09)">
      <defs>
       <path id="DejaVuSans-33" d="M 2597 2516 
Q 3050 2419 3304 2112 
Q 3559 1806 3559 1356 
Q 3559 666 3084 287 
Q 2609 -91 1734 -91 
Q 1441 -91 1130 -33 
Q 819 25 488 141 
L 488 750 
Q 750 597 1062 519 
Q 1375 441 1716 441 
Q 2309 441 2620 675 
Q 2931 909 2931 1356 
Q 2931 1769 2642 2001 
Q 2353 2234 1838 2234 
L 1294 2234 
L 1294 2753 
L 1863 2753 
Q 2328 2753 2575 2939 
Q 2822 3125 2822 3475 
Q 2822 3834 2567 4026 
Q 2313 4219 1838 4219 
Q 1578 4219 1281 4162 
Q 984 4106 628 3988 
L 628 4550 
Q 988 4650 1302 4700 
Q 1616 4750 1894 4750 
Q 2613 4750 3031 4423 
Q 3450 4097 3450 3541 
Q 3450 3153 3228 2886 
Q 3006 2619 2597 2516 
z
" transform="scale(0.015625)"/>
      </defs>
      <use xlink:href="#DejaVuSans-33"/>
     </g>
    </g>
   </g>
   <g id="text_5">
    <g clip-path="url(#p2ea6ed1503)">
     <!-- 4 -->
     <g transform="translate(234.690338 260.647074) scale(0.09 -0.09)">
      <defs>
       <path id="DejaVuSans-34" d="M 2419 4116 
L 825 1625 
L 2419 1625 
L 2419 4116 
z
M 2253 4666 
L 3047 4666 
L 3047 1625 
L 3713 1625 
L 3713 1100 
L 3047 1100 
L 3047 0 
L 2419 0 
L 2419 1100 
L 313 1100 
L 313 1709 
L 2253 4666 
z
" transform="scale(0.015625)"/>
      </defs>
      <use xlink:href="#DejaVuSans-34"/>
     </g>
    </g>
   </g>
   <g id="text_6">
    <g clip-path="url(#p2ea6ed1503)">
     <!-- 5 -->
     <g transform="translate(122.461859 222.465256) scale(0.09 -0.09)">
      <defs>
       <path id="DejaVuSans-35" d="M 691 4666 
L 3169 4666 
L 3169 4134 
L 1269 4134 
L 1269 2991 
Q 1406 3038 1543 3061 
Q 1681 3084 1819 3084 
Q 2600 3084 3056 2656 
Q 3513 2228 3513 1497 
Q 3513 744 3044 326 
Q 2575 -91 1722 -91 
Q 1428 -91 1123 -41 
Q 819 9 494 109 
L 494 744 
Q 775 591 1075 516 
Q 1375 441 1709 441 
Q 2250 441 2565 725 
Q 2881 1009 2881 1497 
Q 2881 1984 2565 2268 
Q 2250 2553 1709 2553 
Q 1456 2553 1204 2497 
Q 953 2441 691 2322 
L 691 4666 
z
" transform="scale(0.015625)"/>
      </defs>
      <use xlink:href="#DejaVuSans-35"/>
     </g>
    </g>
   </g>
   <g id="text_7">
    <g clip-path="url(#p2ea6ed1503)">
     <!-- 6 -->
     <g transform="translate(217.345937 184.283437) scale(0.09 -0.09)">
      <defs>
       <path id="DejaVuSans-36" d="M 2113 2584 
Q 1688 2584 1439 2293 
Q 1191 2003 1191 1497 
Q 1191 994 1439 701 
Q 1688 409 2113 409 
Q 2538 409 2786 701 
Q 3034 994 3034 1497 
Q 3034 2003 2786 2293 
Q 2538 2584 2113 2584 
z
M 3366 4563 
L 3366 3988 
Q 3128 4100 2886 4159 
Q 2644 4219 2406 4219 
Q 1781 4219 1451 3797 
Q 1122 3375 1075 2522 
Q 1259 2794 1537 2939 
Q 1816 3084 2150 3084 
Q 2853 3084 3261 2657 
Q 3669 2231 3669 1497 
Q 3669 778 3244 343 
Q 2819 -91 2113 -91 
Q 1303 -91 875 529 
Q 447 1150 447 2328 
Q 447 3434 972 4092 
Q 1497 4750 2381 4750 
Q 2619 4750 2861 4703 
Q 3103 4656 3366 4563 
z
" transform="scale(0.015625)"/>
      </defs>
      <use xlink:href="#DejaVuSans-36"/>
     </g>
    </g>
   </g>
   <g id="text_8">
    <g clip-path="url(#p2ea6ed1503)">
     <!-- 7 -->
     <g transform="translate(178.576098 146.101619) scale(0.09 -0.09)">
      <defs>
       <path id="DejaVuSans-37" d="M 525 4666 
L 3525 4666 
L 3525 4397 
L 1831 0 
L 1172 0 
L 2766 4134 
L 525 4134 
L 525 4666 
z
" transform="scale(0.015625)"/>
      </defs>
      <use xlink:href="#DejaVuSans-37"/>
     </g>
    </g>
   </g>
   <g id="text_9">
    <g clip-path="url(#p2ea6ed1503)">
     <!-- 8 -->
     <g transform="translate(66.347619 107.919801) scale(0.09 -0.09)">
      <defs>
       <path id="DejaVuSans-38" d="M 2034 2216 
Q 1584 2216 1326 1975 
Q 1069 1734 1069 1313 
Q 1069 891 1326 650 
Q 1584 409 2034 409 
Q 2484 409 2743 651 
Q 3003 894 3003 1313 
Q 3003 1734 2745 1975 
Q 2488 2216 2034 2216 
z
M 1403 2484 
Q 997 2584 770 2862 
Q 544 3141 544 3541 
Q 544 4100 942 4425 
Q 1341 4750 2034 4750 
Q 2731 4750 3128 4425 
Q 3525 4100 3525 3541 
Q 3525 3141 3298 2862 
Q 3072 2584 2669 2484 
Q 3125 2378 3379 2068 
Q 3634 1759 3634 1313 
Q 3634 634 3220 271 
Q 2806 -91 2034 -91 
Q 1263 -91 848 271 
Q 434 634 434 1313 
Q 434 1759 690 2068 
Q 947 2378 1403 2484 
z
M 1172 3481 
Q 1172 3119 1398 2916 
Q 1625 2713 2034 2713 
Q 2441 2713 2670 2916 
Q 2900 3119 2900 3481 
Q 2900 3844 2670 4047 
Q 2441 4250 2034 4250 
Q 1625 4250 1398 4047 
Q 1172 3844 1172 3481 
z
" transform="scale(0.015625)"/>
      </defs>
      <use xlink:href="#DejaVuSans-38"/>
     </g>
    </g>
   </g>
   <g id="text_10">
    <g clip-path="url(#p2ea6ed1503)">
     <!-- 9 -->
     <g transform="translate(93.894609 69.737983) scale(0.09 -0.09)">
      <defs>
       <path id="DejaVuSans-39" d="M 703 97 
L 703 672 
Q 941 559 1184 500 
Q 1428 441 1663 441 
Q 2288 441 2617 861 
Q 2947 1281 2994 2138 
Q 2813 1869 2534 1725 
Q 2256 1581 1919 1581 
Q 1219 1581 811 2004 
Q 403 2428 403 3163 
Q 403 3881 828 4315 
Q 1253 4750 1959 4750 
Q 2769 4750 3195 4129 
Q 3622 3509 3622 2328 
Q 3622 1225 3098 567 
Q 2575 -91 1691 -91 
Q 1453 -91 1209 -44 
Q 966 3 703 97 
z
M 1959 2075 
Q 2384 2075 2632 2365 
Q 2881 2656 2881 3163 
Q 2881 3666 2632 3958 
Q 2384 4250 1959 4250 
Q 1534 4250 1286 3958 
Q 1038 3666 1038 3163 
Q 1038 2656 1286 2365 
Q 1534 2075 1959 2075 
z
" transform="scale(0.015625)"/>
      </defs>
      <use xlink:href="#DejaVuSans-39"/>
     </g>
    </g>
   </g>
  </g>
 </g>
 <defs>
  <clipPath id="p2ea6ed1503">
   <rect x="45" y="43.2" width="279" height="277.2"/>
  </clipPath>
 </defs>
</svg>
