<?xml version="1.0" encoding="utf-8" ?>
<svg xmlns="http://www.w3.org/2000/svg" xmlns:ev="http://www.w3.org/2001/xml-events" xmlns:xlink="http://www.w3.org/1999/xlink" baseProfile="full" height="400" version="1.1" width="1000">
  <defs>
    <style type="text/css"><![CDATA[.background path {fill: #808080; fill-opacity: 0}.background path:nth-child(odd) {fill-opacity: .1}.axes {font-size: 14px}.x-axis .tick .lab {font-weight: bold; dominant-baseline: hanging}.axes, .tree {font-size: 14px; text-anchor: middle}.axes line, .edge {stroke: black; fill: none}.axes .ax-skip {stroke-dasharray: 4}.y-axis .grid {stroke: #FAFAFA}.node > .sym {fill: black; stroke: none}.site > .sym {stroke: black}.mut text {fill: red; font-style: italic}.mut.extra text {fill: hotpink}.mut line {fill: none; stroke: none}.mut .sym {fill: none; stroke: red}.mut.extra .sym {stroke: hotpink}.node .mut .sym {stroke-width: 1.5px}.tree text, .tree-sequence text {dominant-baseline: central}.plotbox .lab.lft {text-anchor: end}.plotbox .lab.rgt {text-anchor: start}.n5 > .sym {fill: blue}.n6 > .sym {fill: blue}.n9 > .sym {fill: blue}.n10 > .sym {fill: blue}.n13 > .sym {fill: blue}.n14 > .sym {fill: blue}.n16 > .sym {fill: blue}.n17 > .sym {fill: blue}.n18 > .sym {fill: blue}.n19 > .sym {fill: blue}background-color = white]]></style>
  </defs>
  <g class="tree-sequence">
    <g class="background">
      <rect width="100%" height="100%" fill="#fff" />
      <path d="M20,0 l160,0 l0,338.2 l-121.6,25 l0,5 l-38.4,0 l0,-5 l0,-25 l0,-338.2z"/>
      <path d="M180,0 l160,0 l0,338.2 l-185.6,25 l0,5 l-96,0 l0,-5 l121.6,-25 l0,-338.2z"/>
      <path d="M340,0 l160,0 l0,338.2 l-297.6,25 l0,5 l-48,0 l0,-5 l185.6,-25 l0,-338.2z"/>
      <path d="M500,0 l160,0 l0,338.2 l-198.4,25 l0,5 l-259.2,0 l0,-5 l297.6,-25 l0,-338.2z"/>
      <path d="M660,0 l160,0 l0,338.2 l-51.2,25 l0,5 l-307.2,0 l0,-5 l198.4,-25 l0,-338.2z"/>
      <path d="M820,0 l160,0 l0,338.2 l0,25 l0,5 l-211.2,0 l0,-5 l51.2,-25 l0,-338.2z"/>
    </g>
    <g class="axes">
      <g class="x-axis">
        <g class="title" transform="translate(500 400)">
          <text class="lab" text-anchor="middle" transform="translate(0 -11)">Genome position</text>
        </g>
        <line class="ax-line" x1="20" x2="980" y1="363.2" y2="363.2"/>
        <g class="ticks">
          <g class="tick" transform="translate(20 363.2)">
            <line x1="0" x2="0" y1="0" y2="5"/>
            <g transform="translate(0 6)">
              <text class="lab">0</text>
            </g>
          </g>
          <g class="tick" transform="translate(58.4 363.2)">
            <line x1="0" x2="0" y1="0" y2="5"/>
            <g transform="translate(0 6)">
              <text class="lab">4</text>
            </g>
          </g>
          <g class="tick" transform="translate(154.4 363.2)">
            <line x1="0" x2="0" y1="0" y2="5"/>
            <g transform="translate(0 6)">
              <text class="lab">14</text>
            </g>
          </g>
          <g class="tick" transform="translate(202.4 363.2)">
            <line x1="0" x2="0" y1="0" y2="5"/>
            <g transform="translate(0 6)">
              <text class="lab">19</text>
            </g>
          </g>
          <g class="tick" transform="translate(461.6 363.2)">
            <line x1="0" x2="0" y1="0" y2="5"/>
            <g transform="translate(0 6)">
              <text class="lab">46</text>
            </g>
          </g>
          <g class="tick" transform="translate(768.8 363.2)">
            <line x1="0" x2="0" y1="0" y2="5"/>
            <g transform="translate(0 6)">
              <text class="lab">78</text>
            </g>
          </g>
          <g class="tick" transform="translate(980 363.2)">
            <line x1="0" x2="0" y1="0" y2="5"/>
            <g transform="translate(0 6)">
              <text class="lab">100</text>
            </g>
          </g>
        </g>
      </g>
    </g>
    <g class="plotbox trees">
      <g class="tree t0" transform="translate(20 0)">
        <g class="plotbox">
          <g class="c2 node n21 p0 root" transform="translate(102.5 68.8857)">
            <g class="a21 c1 node n13 p0" transform="translate(-25.5 105.214)">
              <g class="a13 c2 node n12 p0" transform="translate(0.0 21.0429)">
                <g class="a12 c1 node n8 p0" transform="translate(27 63.1286)">
                  <g class="a8 i2 leaf node n2 p0 sample" transform="translate(0.0 63.1286)">
                    <path class="edge" d="M 0 0 V -63.1286 H 0.0"/>
                    <rect class="sym" height="6" width="6" x="-3" y="-3"/>
                    <text class="lab" transform="translate(0 11)">2</text>
                  </g>
                  <path class="edge" d="M 0 0 V -63.1286 H -27"/>
                  <circle class="sym" cx="0" cy="0" r="3"/>
                  <text class="lab rgt" transform="translate(3 -7.0)">8</text>
                </g>
                <g class="a12 c2 node n11 p0" transform="translate(-27 21.0429)">
                  <g class="a11 c2 node n7 p0" transform="translate(18 63.1286)">
                    <g class="a7 i4 leaf node n4 p0 sample" transform="translate(12 42.0857)">
                      <path class="edge" d="M 0 0 V -42.0857 H -12"/>
                      <rect class="sym" height="6" width="6" x="-3" y="-3"/>
                      <text class="lab" transform="translate(0 11)">4</text>
                    </g>
                    <g class="a7 c1 node n5 p0" transform="translate(-12 21.0429)">
                      <g class="a5 i1 leaf node n1 p0 sample" transform="translate(0.0 21.0429)">
                        <path class="edge" d="M 0 0 V -21.0429 H 0.0"/>
                        <rect class="sym" height="6" width="6" x="-3" y="-3"/>
                        <text class="lab" transform="translate(0 11)">1</text>
                      </g>
                      <path class="edge" d="M 0 0 V -21.0429 H 12"/>
                      <circle class="sym" cx="0" cy="0" r="3"/>
                      <text class="lab lft" transform="translate(-3 -7.0)">5</text>
                    </g>
                    <path class="edge" d="M 0 0 V -63.1286 H -18"/>
                    <circle class="sym" cx="0" cy="0" r="3"/>
                    <text class="lab rgt" transform="translate(3 -7.0)">7</text>
                  </g>
                  <g class="a11 c1 node n9 p0" transform="translate(-18 21.0429)">
                    <g class="a9 i0 leaf node n0 p0 sample" transform="translate(0.0 84.1714)">
                      <path class="edge" d="M 0 0 V -84.1714 H 0.0"/>
                      <rect class="sym" height="6" width="6" x="-3" y="-3"/>
                      <text class="lab" transform="translate(0 11)">0</text>
                    </g>
                    <path class="edge" d="M 0 0 V -21.0429 H 18"/>
                    <circle class="sym" cx="0" cy="0" r="3"/>
                    <text class="lab lft" transform="translate(-3 -7.0)">9</text>
                  </g>
                  <path class="edge" d="M 0 0 V -21.0429 H 27"/>
                  <circle class="sym" cx="0" cy="0" r="3"/>
                  <text class="lab lft" transform="translate(-3 -7.0)">11</text>
                </g>
                <path class="edge" d="M 0 0 V -21.0429 H 0.0"/>
                <circle class="sym" cx="0" cy="0" r="3"/>
                <text class="lab lft" transform="translate(-3 -7.0)">12</text>
              </g>
              <path class="edge" d="M 0 0 V -105.214 H 25.5"/>
              <circle class="sym" cx="0" cy="0" r="3"/>
              <text class="lab lft" transform="translate(-3 -7.0)">13</text>
            </g>
            <g class="a21 c1 node n16 p0" transform="translate(25.5 63.1286)">
              <g class="a16 i3 leaf node n3 p0 sample" transform="translate(0.0 189.386)">
                <path class="edge" d="M 0 0 V -189.386 H 0.0"/>
                <rect class="sym" height="6" width="6" x="-3" y="-3"/>
                <text class="lab" transform="translate(0 11)">3</text>
              </g>
              <path class="edge" d="M 0 0 V -63.1286 H -25.5"/>
              <circle class="sym" cx="0" cy="0" r="3"/>
              <text class="lab rgt" transform="translate(3 -7.0)">16</text>
            </g>
            <circle class="sym" cx="0" cy="0" r="3"/>
            <text class="lab" transform="translate(0 -11)">21</text>
          </g>
        </g>
      </g>
      <g class="tree t1" transform="translate(180 0)">
        <g class="plotbox">
          <g class="c2 node n22 p0 root" transform="translate(102.5 47.8429)">
            <g class="a22 c1 node n20 p0" transform="translate(25.5 42.0857)">
              <g class="a20 c1 node n18 p0" transform="translate(0.0 21.0429)">
                <g class="a18 c1 node n17 p0" transform="translate(0.0 21.0429)">
                  <g class="a17 i3 leaf node n3 p0 sample" transform="translate(0.0 189.386)">
                    <path class="edge" d="M 0 0 V -189.386 H 0.0"/>
                    <rect class="sym" height="6" width="6" x="-3" y="-3"/>
                    <text class="lab" transform="translate(0 11)">3</text>
                  </g>
                  <path class="edge" d="M 0 0 V -21.0429 H 0.0"/>
                  <circle class="sym" cx="0" cy="0" r="3"/>
                  <text class="lab lft" transform="translate(-3 -7.0)">17</text>
                </g>
                <path class="edge" d="M 0 0 V -21.0429 H 0.0"/>
                <circle class="sym" cx="0" cy="0" r="3"/>
                <text class="lab lft" transform="translate(-3 -7.0)">18</text>
              </g>
              <path class="edge" d="M 0 0 V -42.0857 H -25.5"/>
              <circle class="sym" cx="0" cy="0" r="3"/>
              <text class="lab rgt" transform="translate(3 -7.0)">20</text>
            </g>
            <g class="a22 c1 node n21 p0" transform="translate(-25.5 21.0429)">
              <g class="a21 c1 node n13 p0" transform="translate(0.0 105.214)">
                <g class="a13 c2 node n12 p0" transform="translate(0.0 21.0429)">
                  <g class="a12 c1 node n8 p0" transform="translate(27 63.1286)">
                    <g class="a8 i2 leaf node n2 p0 sample" transform="translate(0.0 63.1286)">
                      <path class="edge" d="M 0 0 V -63.1286 H 0.0"/>
                      <rect class="sym" height="6" width="6" x="-3" y="-3"/>
                      <text class="lab" transform="translate(0 11)">2</text>
                    </g>
                    <path class="edge" d="M 0 0 V -63.1286 H -27"/>
                    <circle class="sym" cx="0" cy="0" r="3"/>
                    <text class="lab rgt" transform="translate(3 -7.0)">8</text>
                  </g>
                  <g class="a12 c2 node n11 p0" transform="translate(-27 21.0429)">
                    <g class="a11 c2 node n7 p0" transform="translate(18 63.1286)">
                      <g class="a7 i4 leaf node n4 p0 sample" transform="translate(12 42.0857)">
                        <path class="edge" d="M 0 0 V -42.0857 H -12"/>
                        <rect class="sym" height="6" width="6" x="-3" y="-3"/>
                        <text class="lab" transform="translate(0 11)">4</text>
                      </g>
                      <g class="a7 c1 node n5 p0" transform="translate(-12 21.0429)">
                        <g class="a5 i1 leaf node n1 p0 sample" transform="translate(0.0 21.0429)">
                          <path class="edge" d="M 0 0 V -21.0429 H 0.0"/>
                          <rect class="sym" height="6" width="6" x="-3" y="-3"/>
                          <text class="lab" transform="translate(0 11)">1</text>
                        </g>
                        <path class="edge" d="M 0 0 V -21.0429 H 12"/>
                        <circle class="sym" cx="0" cy="0" r="3"/>
                        <text class="lab lft" transform="translate(-3 -7.0)">5</text>
                      </g>
                      <path class="edge" d="M 0 0 V -63.1286 H -18"/>
                      <circle class="sym" cx="0" cy="0" r="3"/>
                      <text class="lab rgt" transform="translate(3 -7.0)">7</text>
                    </g>
                    <g class="a11 c1 node n9 p0" transform="translate(-18 21.0429)">
                      <g class="a9 i0 leaf node n0 p0 sample" transform="translate(0.0 84.1714)">
                        <path class="edge" d="M 0 0 V -84.1714 H 0.0"/>
                        <rect class="sym" height="6" width="6" x="-3" y="-3"/>
                        <text class="lab" transform="translate(0 11)">0</text>
                      </g>
                      <path class="edge" d="M 0 0 V -21.0429 H 18"/>
                      <circle class="sym" cx="0" cy="0" r="3"/>
                      <text class="lab lft" transform="translate(-3 -7.0)">9</text>
                    </g>
                    <path class="edge" d="M 0 0 V -21.0429 H 27"/>
                    <circle class="sym" cx="0" cy="0" r="3"/>
                    <text class="lab lft" transform="translate(-3 -7.0)">11</text>
                  </g>
                  <path class="edge" d="M 0 0 V -21.0429 H 0.0"/>
                  <circle class="sym" cx="0" cy="0" r="3"/>
                  <text class="lab lft" transform="translate(-3 -7.0)">12</text>
                </g>
                <path class="edge" d="M 0 0 V -105.214 H 0.0"/>
                <circle class="sym" cx="0" cy="0" r="3"/>
                <text class="lab lft" transform="translate(-3 -7.0)">13</text>
              </g>
              <path class="edge" d="M 0 0 V -21.0429 H 25.5"/>
              <circle class="sym" cx="0" cy="0" r="3"/>
              <text class="lab lft" transform="translate(-3 -7.0)">21</text>
            </g>
            <circle class="sym" cx="0" cy="0" r="3"/>
            <text class="lab" transform="translate(0 -11)">22</text>
          </g>
        </g>
      </g>
      <g class="tree t2" transform="translate(340 0)">
        <g class="plotbox">
          <g class="c2 node n20 p0 root" transform="translate(102.5 89.9286)">
            <g class="a20 c1 node n18 p0" transform="translate(25.5 21.0429)">
              <g class="a18 c1 node n17 p0" transform="translate(0.0 21.0429)">
                <g class="a17 i3 leaf node n3 p0 sample" transform="translate(0.0 189.386)">
                  <path class="edge" d="M 0 0 V -189.386 H 0.0"/>
                  <rect class="sym" height="6" width="6" x="-3" y="-3"/>
                  <text class="lab" transform="translate(0 11)">3</text>
                </g>
                <path class="edge" d="M 0 0 V -21.0429 H 0.0"/>
                <circle class="sym" cx="0" cy="0" r="3"/>
                <text class="lab lft" transform="translate(-3 -7.0)">17</text>
              </g>
              <path class="edge" d="M 0 0 V -21.0429 H -25.5"/>
              <circle class="sym" cx="0" cy="0" r="3"/>
              <text class="lab rgt" transform="translate(3 -7.0)">18</text>
            </g>
            <g class="a20 c1 node n15 p0" transform="translate(-25.5 63.1286)">
              <g class="a15 c1 node n14 p0" transform="translate(0.0 21.0429)">
                <g class="a14 c2 node n12 p0" transform="translate(0.0 21.0429)">
                  <g class="a12 c1 node n8 p0" transform="translate(27 63.1286)">
                    <g class="a8 i2 leaf node n2 p0 sample" transform="translate(0.0 63.1286)">
                      <path class="edge" d="M 0 0 V -63.1286 H 0.0"/>
                      <rect class="sym" height="6" width="6" x="-3" y="-3"/>
                      <text class="lab" transform="translate(0 11)">2</text>
                    </g>
                    <path class="edge" d="M 0 0 V -63.1286 H -27"/>
                    <circle class="sym" cx="0" cy="0" r="3"/>
                    <text class="lab rgt" transform="translate(3 -7.0)">8</text>
                  </g>
                  <g class="a12 c2 node n11 p0" transform="translate(-27 21.0429)">
                    <g class="a11 c2 node n7 p0" transform="translate(18 63.1286)">
                      <g class="a7 i4 leaf node n4 p0 sample" transform="translate(12 42.0857)">
                        <path class="edge" d="M 0 0 V -42.0857 H -12"/>
                        <rect class="sym" height="6" width="6" x="-3" y="-3"/>
                        <text class="lab" transform="translate(0 11)">4</text>
                      </g>
                      <g class="a7 c1 node n5 p0" transform="translate(-12 21.0429)">
                        <g class="a5 i1 leaf node n1 p0 sample" transform="translate(0.0 21.0429)">
                          <path class="edge" d="M 0 0 V -21.0429 H 0.0"/>
                          <rect class="sym" height="6" width="6" x="-3" y="-3"/>
                          <text class="lab" transform="translate(0 11)">1</text>
                        </g>
                        <path class="edge" d="M 0 0 V -21.0429 H 12"/>
                        <circle class="sym" cx="0" cy="0" r="3"/>
                        <text class="lab lft" transform="translate(-3 -7.0)">5</text>
                      </g>
                      <path class="edge" d="M 0 0 V -63.1286 H -18"/>
                      <circle class="sym" cx="0" cy="0" r="3"/>
                      <text class="lab rgt" transform="translate(3 -7.0)">7</text>
                    </g>
                    <g class="a11 c1 node n9 p0" transform="translate(-18 21.0429)">
                      <g class="a9 i0 leaf node n0 p0 sample" transform="translate(0.0 84.1714)">
                        <path class="edge" d="M 0 0 V -84.1714 H 0.0"/>
                        <rect class="sym" height="6" width="6" x="-3" y="-3"/>
                        <text class="lab" transform="translate(0 11)">0</text>
                      </g>
                      <path class="edge" d="M 0 0 V -21.0429 H 18"/>
                      <circle class="sym" cx="0" cy="0" r="3"/>
                      <text class="lab lft" transform="translate(-3 -7.0)">9</text>
                    </g>
                    <path class="edge" d="M 0 0 V -21.0429 H 27"/>
                    <circle class="sym" cx="0" cy="0" r="3"/>
                    <text class="lab lft" transform="translate(-3 -7.0)">11</text>
                  </g>
                  <path class="edge" d="M 0 0 V -21.0429 H 0.0"/>
                  <circle class="sym" cx="0" cy="0" r="3"/>
                  <text class="lab lft" transform="translate(-3 -7.0)">12</text>
                </g>
                <path class="edge" d="M 0 0 V -21.0429 H 0.0"/>
                <circle class="sym" cx="0" cy="0" r="3"/>
                <text class="lab lft" transform="translate(-3 -7.0)">14</text>
              </g>
              <path class="edge" d="M 0 0 V -63.1286 H 25.5"/>
              <circle class="sym" cx="0" cy="0" r="3"/>
              <text class="lab lft" transform="translate(-3 -7.0)">15</text>
            </g>
            <circle class="sym" cx="0" cy="0" r="3"/>
            <text class="lab" transform="translate(0 -11)">20</text>
          </g>
        </g>
      </g>
      <g class="tree t3" transform="translate(500 0)">
        <g class="plotbox">
          <g class="c2 node n20 p0 root" transform="translate(98 89.9286)">
            <g class="a20 c1 node n18 p0" transform="translate(30 21.0429)">
              <g class="a18 c1 node n17 p0" transform="translate(0.0 21.0429)">
                <g class="a17 i3 leaf node n3 p0 sample" transform="translate(0.0 189.386)">
                  <path class="edge" d="M 0 0 V -189.386 H 0.0"/>
                  <rect class="sym" height="6" width="6" x="-3" y="-3"/>
                  <text class="lab" transform="translate(0 11)">3</text>
                </g>
                <path class="edge" d="M 0 0 V -21.0429 H 0.0"/>
                <circle class="sym" cx="0" cy="0" r="3"/>
                <text class="lab lft" transform="translate(-3 -7.0)">17</text>
              </g>
              <path class="edge" d="M 0 0 V -21.0429 H -30"/>
              <circle class="sym" cx="0" cy="0" r="3"/>
              <text class="lab rgt" transform="translate(3 -7.0)">18</text>
            </g>
            <g class="a20 c1 node n15 p0" transform="translate(-30 63.1286)">
              <g class="a15 c1 node n14 p0" transform="translate(0.0 21.0429)">
                <g class="a14 c2 node n12 p0" transform="translate(0.0 21.0429)">
                  <g class="a12 c2 node n8 p0" transform="translate(24 63.1286)">
                    <g class="a8 i2 leaf node n2 p0 sample" transform="translate(12 63.1286)">
                      <path class="edge" d="M 0 0 V -63.1286 H -12"/>
                      <rect class="sym" height="6" width="6" x="-3" y="-3"/>
                      <text class="lab" transform="translate(0 11)">2</text>
                    </g>
                    <g class="a8 c1 node n6 p0" transform="translate(-12 42.0857)">
                      <g class="a6 i1 leaf node n1 p0 sample" transform="translate(0.0 21.0429)">
                        <path class="edge" d="M 0 0 V -21.0429 H 0.0"/>
                        <rect class="sym" height="6" width="6" x="-3" y="-3"/>
                        <text class="lab" transform="translate(0 11)">1</text>
                      </g>
                      <path class="edge" d="M 0 0 V -42.0857 H 12"/>
                      <circle class="sym" cx="0" cy="0" r="3"/>
                      <text class="lab lft" transform="translate(-3 -7.0)">6</text>
                    </g>
                    <path class="edge" d="M 0 0 V -63.1286 H -24"/>
                    <circle class="sym" cx="0" cy="0" r="3"/>
                    <text class="lab rgt" transform="translate(3 -7.0)">8</text>
                  </g>
                  <g class="a12 c2 node n11 p0" transform="translate(-24 21.0429)">
                    <g class="a11 c1 node n7 p0" transform="translate(12 63.1286)">
                      <g class="a7 i4 leaf node n4 p0 sample" transform="translate(0.0 42.0857)">
                        <path class="edge" d="M 0 0 V -42.0857 H 0.0"/>
                        <rect class="sym" height="6" width="6" x="-3" y="-3"/>
                        <text class="lab" transform="translate(0 11)">4</text>
                      </g>
                      <path class="edge" d="M 0 0 V -63.1286 H -12"/>
                      <circle class="sym" cx="0" cy="0" r="3"/>
                      <text class="lab rgt" transform="translate(3 -7.0)">7</text>
                    </g>
                    <g class="a11 c1 node n9 p0" transform="translate(-12 21.0429)">
                      <g class="a9 i0 leaf node n0 p0 sample" transform="translate(0.0 84.1714)">
                        <path class="edge" d="M 0 0 V -84.1714 H 0.0"/>
                        <rect class="sym" height="6" width="6" x="-3" y="-3"/>
                        <text class="lab" transform="translate(0 11)">0</text>
                      </g>
                      <path class="edge" d="M 0 0 V -21.0429 H 12"/>
                      <circle class="sym" cx="0" cy="0" r="3"/>
                      <text class="lab lft" transform="translate(-3 -7.0)">9</text>
                    </g>
                    <path class="edge" d="M 0 0 V -21.0429 H 24"/>
                    <circle class="sym" cx="0" cy="0" r="3"/>
                    <text class="lab lft" transform="translate(-3 -7.0)">11</text>
                  </g>
                  <path class="edge" d="M 0 0 V -21.0429 H 0.0"/>
                  <circle class="sym" cx="0" cy="0" r="3"/>
                  <text class="lab lft" transform="translate(-3 -7.0)">12</text>
                </g>
                <path class="edge" d="M 0 0 V -21.0429 H 0.0"/>
                <circle class="sym" cx="0" cy="0" r="3"/>
                <text class="lab lft" transform="translate(-3 -7.0)">14</text>
              </g>
              <path class="edge" d="M 0 0 V -63.1286 H 30"/>
              <circle class="sym" cx="0" cy="0" r="3"/>
              <text class="lab lft" transform="translate(-3 -7.0)">15</text>
            </g>
            <circle class="sym" cx="0" cy="0" r="3"/>
            <text class="lab" transform="translate(0 -11)">20</text>
          </g>
        </g>
      </g>
      <g class="tree t4" transform="translate(660 0)">
        <g class="plotbox">
          <g class="c2 node n20 p0 root" transform="translate(93.5 89.9286)">
            <g class="a20 c1 node n18 p0" transform="translate(34.5 21.0429)">
              <g class="a18 c1 node n17 p0" transform="translate(0.0 21.0429)">
                <g class="a17 i3 leaf node n3 p0 sample" transform="translate(0.0 189.386)">
                  <path class="edge" d="M 0 0 V -189.386 H 0.0"/>
                  <rect class="sym" height="6" width="6" x="-3" y="-3"/>
                  <text class="lab" transform="translate(0 11)">3</text>
                </g>
                <path class="edge" d="M 0 0 V -21.0429 H 0.0"/>
                <circle class="sym" cx="0" cy="0" r="3"/>
                <text class="lab lft" transform="translate(-3 -7.0)">17</text>
              </g>
              <path class="edge" d="M 0 0 V -21.0429 H -34.5"/>
              <circle class="sym" cx="0" cy="0" r="3"/>
              <text class="lab rgt" transform="translate(3 -7.0)">18</text>
            </g>
            <g class="a20 c2 node n15 p0" transform="translate(-34.5 63.1286)">
              <g class="a15 c1 node n14 p0" transform="translate(27 21.0429)">
                <g class="a14 c2 node n12 p0" transform="translate(0.0 21.0429)">
                  <g class="a12 c2 node n8 p0" transform="translate(-18 63.1286)">
                    <g class="a8 i2 leaf node n2 p0 sample" transform="translate(12 63.1286)">
                      <path class="edge" d="M 0 0 V -63.1286 H -12"/>
                      <rect class="sym" height="6" width="6" x="-3" y="-3"/>
                      <text class="lab" transform="translate(0 11)">2</text>
                    </g>
                    <g class="a8 c1 node n6 p0" transform="translate(-12 42.0857)">
                      <g class="a6 i1 leaf node n1 p0 sample" transform="translate(0.0 21.0429)">
                        <path class="edge" d="M 0 0 V -21.0429 H 0.0"/>
                        <rect class="sym" height="6" width="6" x="-3" y="-3"/>
                        <text class="lab" transform="translate(0 11)">1</text>
                      </g>
                      <path class="edge" d="M 0 0 V -42.0857 H 12"/>
                      <circle class="sym" cx="0" cy="0" r="3"/>
                      <text class="lab lft" transform="translate(-3 -7.0)">6</text>
                    </g>
                    <path class="edge" d="M 0 0 V -63.1286 H 18"/>
                    <circle class="sym" cx="0" cy="0" r="3"/>
                    <text class="lab lft" transform="translate(-3 -7.0)">8</text>
                  </g>
                  <g class="a12 c1 node n11 p0" transform="translate(18 21.0429)">
                    <g class="a11 c1 node n7 p0" transform="translate(0.0 63.1286)">
                      <g class="a7 i4 leaf node n4 p0 sample" transform="translate(0.0 42.0857)">
                        <path class="edge" d="M 0 0 V -42.0857 H 0.0"/>
                        <rect class="sym" height="6" width="6" x="-3" y="-3"/>
                        <text class="lab" transform="translate(0 11)">4</text>
                      </g>
                      <path class="edge" d="M 0 0 V -63.1286 H 0.0"/>
                      <circle class="sym" cx="0" cy="0" r="3"/>
                      <text class="lab lft" transform="translate(-3 -7.0)">7</text>
                    </g>
                    <path class="edge" d="M 0 0 V -21.0429 H -18"/>
                    <circle class="sym" cx="0" cy="0" r="3"/>
                    <text class="lab rgt" transform="translate(3 -7.0)">11</text>
                  </g>
                  <path class="edge" d="M 0 0 V -21.0429 H 0.0"/>
                  <circle class="sym" cx="0" cy="0" r="3"/>
                  <text class="lab lft" transform="translate(-3 -7.0)">12</text>
                </g>
                <path class="edge" d="M 0 0 V -21.0429 H -27"/>
                <circle class="sym" cx="0" cy="0" r="3"/>
                <text class="lab rgt" transform="translate(3 -7.0)">14</text>
              </g>
              <g class="a15 c1 node n10 p0" transform="translate(-27 84.1714)">
                <g class="a10 i0 leaf node n0 p0 sample" transform="translate(0.0 84.1714)">
                  <path class="edge" d="M 0 0 V -84.1714 H 0.0"/>
                  <rect class="sym" height="6" width="6" x="-3" y="-3"/>
                  <text class="lab" transform="translate(0 11)">0</text>
                </g>
                <path class="edge" d="M 0 0 V -84.1714 H 27"/>
                <circle class="sym" cx="0" cy="0" r="3"/>
                <text class="lab lft" transform="translate(-3 -7.0)">10</text>
              </g>
              <path class="edge" d="M 0 0 V -63.1286 H 34.5"/>
              <circle class="sym" cx="0" cy="0" r="3"/>
              <text class="lab lft" transform="translate(-3 -7.0)">15</text>
            </g>
            <circle class="sym" cx="0" cy="0" r="3"/>
            <text class="lab" transform="translate(0 -11)">20</text>
          </g>
        </g>
      </g>
      <g class="tree t5" transform="translate(820 0)">
        <g class="plotbox">
          <g class="c2 node n23 p0 root" transform="translate(93.5 26.8)">
            <g class="a23 c1 node n19 p0" transform="translate(34.5 84.1714)">
              <g class="a19 c1 node n17 p0" transform="translate(0.0 21.0429)">
                <g class="a17 i3 leaf node n3 p0 sample" transform="translate(0.0 189.386)">
                  <path class="edge" d="M 0 0 V -189.386 H 0.0"/>
                  <rect class="sym" height="6" width="6" x="-3" y="-3"/>
                  <text class="lab" transform="translate(0 11)">3</text>
                </g>
                <path class="edge" d="M 0 0 V -21.0429 H 0.0"/>
                <circle class="sym" cx="0" cy="0" r="3"/>
                <text class="lab lft" transform="translate(-3 -7.0)">17</text>
              </g>
              <path class="edge" d="M 0 0 V -84.1714 H -34.5"/>
              <circle class="sym" cx="0" cy="0" r="3"/>
              <text class="lab rgt" transform="translate(3 -7.0)">19</text>
            </g>
            <g class="a23 c1 node n22 p0" transform="translate(-34.5 21.0429)">
              <g class="a22 c1 node n20 p0" transform="translate(0.0 42.0857)">
                <g class="a20 c2 node n15 p0" transform="translate(0.0 63.1286)">
                  <g class="a15 c1 node n14 p0" transform="translate(27 21.0429)">
                    <g class="a14 c2 node n12 p0" transform="translate(0.0 21.0429)">
                      <g class="a12 c2 node n8 p0" transform="translate(-18 63.1286)">
                        <g class="a8 i2 leaf node n2 p0 sample" transform="translate(12 63.1286)">
                          <path class="edge" d="M 0 0 V -63.1286 H -12"/>
                          <rect class="sym" height="6" width="6" x="-3" y="-3"/>
                          <text class="lab" transform="translate(0 11)">2</text>
                        </g>
                        <g class="a8 c1 node n6 p0" transform="translate(-12 42.0857)">
                          <g class="a6 i1 leaf node n1 p0 sample" transform="translate(0.0 21.0429)">
                            <path class="edge" d="M 0 0 V -21.0429 H 0.0"/>
                            <rect class="sym" height="6" width="6" x="-3" y="-3"/>
                            <text class="lab" transform="translate(0 11)">1</text>
                          </g>
                          <path class="edge" d="M 0 0 V -42.0857 H 12"/>
                          <circle class="sym" cx="0" cy="0" r="3"/>
                          <text class="lab lft" transform="translate(-3 -7.0)">6</text>
                        </g>
                        <path class="edge" d="M 0 0 V -63.1286 H 18"/>
                        <circle class="sym" cx="0" cy="0" r="3"/>
                        <text class="lab lft" transform="translate(-3 -7.0)">8</text>
                      </g>
                      <g class="a12 c1 node n11 p0" transform="translate(18 21.0429)">
                        <g class="a11 c1 node n7 p0" transform="translate(0.0 63.1286)">
                          <g class="a7 i4 leaf node n4 p0 sample" transform="translate(0.0 42.0857)">
                            <path class="edge" d="M 0 0 V -42.0857 H 0.0"/>
                            <rect class="sym" height="6" width="6" x="-3" y="-3"/>
                            <text class="lab" transform="translate(0 11)">4</text>
                          </g>
                          <path class="edge" d="M 0 0 V -63.1286 H 0.0"/>
                          <circle class="sym" cx="0" cy="0" r="3"/>
                          <text class="lab lft" transform="translate(-3 -7.0)">7</text>
                        </g>
                        <path class="edge" d="M 0 0 V -21.0429 H -18"/>
                        <circle class="sym" cx="0" cy="0" r="3"/>
                        <text class="lab rgt" transform="translate(3 -7.0)">11</text>
                      </g>
                      <path class="edge" d="M 0 0 V -21.0429 H 0.0"/>
                      <circle class="sym" cx="0" cy="0" r="3"/>
                      <text class="lab lft" transform="translate(-3 -7.0)">12</text>
                    </g>
                    <path class="edge" d="M 0 0 V -21.0429 H -27"/>
                    <circle class="sym" cx="0" cy="0" r="3"/>
                    <text class="lab rgt" transform="translate(3 -7.0)">14</text>
                  </g>
                  <g class="a15 c1 node n10 p0" transform="translate(-27 84.1714)">
                    <g class="a10 i0 leaf node n0 p0 sample" transform="translate(0.0 84.1714)">
                      <path class="edge" d="M 0 0 V -84.1714 H 0.0"/>
                      <rect class="sym" height="6" width="6" x="-3" y="-3"/>
                      <text class="lab" transform="translate(0 11)">0</text>
                    </g>
                    <path class="edge" d="M 0 0 V -84.1714 H 27"/>
                    <circle class="sym" cx="0" cy="0" r="3"/>
                    <text class="lab lft" transform="translate(-3 -7.0)">10</text>
                  </g>
                  <path class="edge" d="M 0 0 V -63.1286 H 0.0"/>
                  <circle class="sym" cx="0" cy="0" r="3"/>
                  <text class="lab lft" transform="translate(-3 -7.0)">15</text>
                </g>
                <path class="edge" d="M 0 0 V -42.0857 H 0.0"/>
                <circle class="sym" cx="0" cy="0" r="3"/>
                <text class="lab lft" transform="translate(-3 -7.0)">20</text>
              </g>
              <path class="edge" d="M 0 0 V -21.0429 H 34.5"/>
              <circle class="sym" cx="0" cy="0" r="3"/>
              <text class="lab lft" transform="translate(-3 -7.0)">22</text>
            </g>
            <circle class="sym" cx="0" cy="0" r="3"/>
            <text class="lab" transform="translate(0 -11)">23</text>
          </g>
        </g>
      </g>
    </g>
  </g>
</svg>
