<?xml version="1.0" encoding="utf-8" ?>
<svg xmlns="http://www.w3.org/2000/svg" xmlns:ev="http://www.w3.org/2001/xml-events" xmlns:xlink="http://www.w3.org/1999/xlink" baseProfile="full" height="400" version="1.1" width="1000">
  <defs>
    <style type="text/css"><![CDATA[.background path {fill: #808080; fill-opacity: 0}.background path:nth-child(odd) {fill-opacity: .1}.axes {font-size: 14px}.x-axis .tick .lab {font-weight: bold; dominant-baseline: hanging}.axes, .tree {font-size: 14px; text-anchor: middle}.axes line, .edge {stroke: black; fill: none}.y-axis .grid {stroke: #FAFAFA}.node > .sym {fill: black; stroke: none}.site > .sym {stroke: black}.mut text {fill: red; font-style: italic}.mut.extra text {fill: hotpink}.mut line {fill: none; stroke: none}.mut .sym {fill: none; stroke: red}.mut.extra .sym {stroke: hotpink}.node .mut .sym {stroke-width: 1.5px}.tree text, .tree-sequence text {dominant-baseline: central}.plotbox .lab.lft {text-anchor: end}.plotbox .lab.rgt {text-anchor: start}]]></style>
  </defs>
  <g class="tree-sequence">
    <g class="background">
      <rect width="100%" height="100%" fill="#fff" />
      <path d="M20,0 l240,0 l0,338.2 l0,25 l0,5 l-240,0 l0,-5 l0,-25 l0,-338.2z"/>
      <path d="M260,0 l240,0 l0,338.2 l-9.6,25 l0,5 l-230.4,0 l0,-5 l0,-25 l0,-338.2z"/>
      <path d="M500,0 l240,0 l0,338.2 l57.6,25 l0,5 l-307.2,0 l0,-5 l9.6,-25 l0,-338.2z"/>
      <path d="M740,0 l240,0 l0,338.2 l0,25 l0,5 l-182.4,0 l0,-5 l-57.6,-25 l0,-338.2z"/>
    </g>
    <g class="axes">
      <g class="x-axis">
        <g transform="translate(500 400)">
          <text class="lab" text-anchor="middle" transform="translate(0 -11)">Genome position</text>
        </g>
        <line x1="20" x2="980" y1="363.2" y2="363.2"/>
        <g class="ticks">
          <g class="tick" transform="translate(20 363.2)">
            <line x1="0" x2="0" y1="0" y2="5"/>
            <g transform="translate(0 6)">
              <text class="lab">0</text>
            </g>
          </g>
          <g class="tick" transform="translate(260 363.2)">
            <line x1="0" x2="0" y1="0" y2="5"/>
            <g transform="translate(0 6)">
              <text class="lab">25</text>
            </g>
          </g>
          <g class="tick" transform="translate(490.4 363.2)">
            <line x1="0" x2="0" y1="0" y2="5"/>
            <g transform="translate(0 6)">
              <text class="lab">49</text>
            </g>
          </g>
          <g class="tick" transform="translate(797.6 363.2)">
            <line x1="0" x2="0" y1="0" y2="5"/>
            <g transform="translate(0 6)">
              <text class="lab">81</text>
            </g>
          </g>
          <g class="tick" transform="translate(980 363.2)">
            <line x1="0" x2="0" y1="0" y2="5"/>
            <g transform="translate(0 6)">
              <text class="lab">100</text>
            </g>
          </g>
        </g>
      </g>
    </g>
    <g class="plotbox trees">
      <g class="tree t0" transform="translate(20 0)">
        <g class="plotbox">
          <g class="c2 node n8 root" transform="translate(151.25 75.9)">
            <g class="a8 leaf node n3 sample" transform="translate(43.75 245.5)">
              <path class="edge" d="M 0 0 V -245.5 H -43.75"/>
              <rect class="sym" height="6" width="6" x="-3" y="-3"/>
              <text class="lab" transform="translate(0 11)">3</text>
            </g>
            <g class="a8 c1 node n7" transform="translate(-43.75 49.1)">
              <g class="a7 c2 node n6" transform="translate(0.0 49.1)">
                <g class="a6 leaf node n2 sample" transform="translate(37.5 147.3)">
                  <path class="edge" d="M 0 0 V -147.3 H -37.5"/>
                  <rect class="sym" height="6" width="6" x="-3" y="-3"/>
                  <text class="lab" transform="translate(0 11)">2</text>
                </g>
                <g class="a6 c2 node n4" transform="translate(-37.5 98.2)">
                  <g class="a4 leaf node n0 sample" transform="translate(-25 49.1)">
                    <path class="edge" d="M 0 0 V -49.1 H 25"/>
                    <rect class="sym" height="6" width="6" x="-3" y="-3"/>
                    <text class="lab" transform="translate(0 11)">0</text>
                  </g>
                  <g class="a4 leaf node n1 sample" transform="translate(25 49.1)">
                    <path class="edge" d="M 0 0 V -49.1 H -25"/>
                    <rect class="sym" height="6" width="6" x="-3" y="-3"/>
                    <text class="lab" transform="translate(0 11)">1</text>
                  </g>
                  <path class="edge" d="M 0 0 V -98.2 H 37.5"/>
                  <circle class="sym" cx="0" cy="0" r="3"/>
                  <text class="lab lft" transform="translate(-3 -7.0)">4</text>
                </g>
                <path class="edge" d="M 0 0 V -49.1 H 0.0"/>
                <circle class="sym" cx="0" cy="0" r="3"/>
                <text class="lab lft" transform="translate(-3 -7.0)">6</text>
              </g>
              <path class="edge" d="M 0 0 V -49.1 H 43.75"/>
              <circle class="sym" cx="0" cy="0" r="3"/>
              <text class="lab lft" transform="translate(-3 -7.0)">7</text>
            </g>
            <circle class="sym" cx="0" cy="0" r="3"/>
            <text class="lab" transform="translate(0 -11)">8</text>
          </g>
        </g>
      </g>
      <g class="tree t1" transform="translate(260 0)">
        <g class="plotbox">
          <g class="c2 node n7 root" transform="translate(151.25 125)">
            <g class="a7 c2 node n6" transform="translate(-43.75 49.1)">
              <g class="a6 leaf node n2 sample" transform="translate(37.5 147.3)">
                <path class="edge" d="M 0 0 V -147.3 H -37.5"/>
                <rect class="sym" height="6" width="6" x="-3" y="-3"/>
                <text class="lab" transform="translate(0 11)">2</text>
              </g>
              <g class="a6 c2 node n4" transform="translate(-37.5 98.2)">
                <g class="a4 leaf node n0 sample" transform="translate(-25 49.1)">
                  <path class="edge" d="M 0 0 V -49.1 H 25"/>
                  <rect class="sym" height="6" width="6" x="-3" y="-3"/>
                  <text class="lab" transform="translate(0 11)">0</text>
                </g>
                <g class="a4 leaf node n1 sample" transform="translate(25 49.1)">
                  <path class="edge" d="M 0 0 V -49.1 H -25"/>
                  <rect class="sym" height="6" width="6" x="-3" y="-3"/>
                  <text class="lab" transform="translate(0 11)">1</text>
                </g>
                <path class="edge" d="M 0 0 V -98.2 H 37.5"/>
                <circle class="sym" cx="0" cy="0" r="3"/>
                <text class="lab lft" transform="translate(-3 -7.0)">4</text>
              </g>
              <path class="edge" d="M 0 0 V -49.1 H 43.75"/>
              <circle class="sym" cx="0" cy="0" r="3"/>
              <text class="lab lft" transform="translate(-3 -7.0)">6</text>
            </g>
            <g class="a7 c1 node n5" transform="translate(43.75 98.2)">
              <g class="a5 leaf node n3 sample" transform="translate(0.0 98.2)">
                <path class="edge" d="M 0 0 V -98.2 H 0.0"/>
                <rect class="sym" height="6" width="6" x="-3" y="-3"/>
                <text class="lab" transform="translate(0 11)">3</text>
              </g>
              <path class="edge" d="M 0 0 V -98.2 H -43.75"/>
              <circle class="sym" cx="0" cy="0" r="3"/>
              <text class="lab rgt" transform="translate(3 -7.0)">5</text>
            </g>
            <circle class="sym" cx="0" cy="0" r="3"/>
            <text class="lab" transform="translate(0 -11)">7</text>
          </g>
        </g>
      </g>
      <g class="tree t2" transform="translate(500 0)">
        <g class="plotbox">
          <g class="c2 node n7 root" transform="translate(120 125)">
            <g class="a7 c1 node n6" transform="translate(-50 49.1)">
              <g class="a6 c2 node n4" transform="translate(0.0 98.2)">
                <g class="a4 leaf node n0 sample" transform="translate(-25 49.1)">
                  <path class="edge" d="M 0 0 V -49.1 H 25"/>
                  <rect class="sym" height="6" width="6" x="-3" y="-3"/>
                  <text class="lab" transform="translate(0 11)">0</text>
                </g>
                <g class="a4 leaf node n1 sample" transform="translate(25 49.1)">
                  <path class="edge" d="M 0 0 V -49.1 H -25"/>
                  <rect class="sym" height="6" width="6" x="-3" y="-3"/>
                  <text class="lab" transform="translate(0 11)">1</text>
                </g>
                <path class="edge" d="M 0 0 V -98.2 H 0.0"/>
                <circle class="sym" cx="0" cy="0" r="3"/>
                <text class="lab lft" transform="translate(-3 -7.0)">4</text>
              </g>
              <path class="edge" d="M 0 0 V -49.1 H 50"/>
              <circle class="sym" cx="0" cy="0" r="3"/>
              <text class="lab lft" transform="translate(-3 -7.0)">6</text>
            </g>
            <g class="a7 c2 node n5" transform="translate(50 98.2)">
              <g class="a5 leaf node n3 sample" transform="translate(25 98.2)">
                <path class="edge" d="M 0 0 V -98.2 H -25"/>
                <rect class="sym" height="6" width="6" x="-3" y="-3"/>
                <text class="lab" transform="translate(0 11)">3</text>
              </g>
              <g class="a5 leaf node n2 sample" transform="translate(-25 98.2)">
                <path class="edge" d="M 0 0 V -98.2 H 25"/>
                <rect class="sym" height="6" width="6" x="-3" y="-3"/>
                <text class="lab" transform="translate(0 11)">2</text>
              </g>
              <path class="edge" d="M 0 0 V -98.2 H -50"/>
              <circle class="sym" cx="0" cy="0" r="3"/>
              <text class="lab rgt" transform="translate(3 -7.0)">5</text>
            </g>
            <circle class="sym" cx="0" cy="0" r="3"/>
            <text class="lab" transform="translate(0 -11)">7</text>
          </g>
        </g>
      </g>
      <g class="tree t3" transform="translate(740 0)">
        <g class="plotbox">
          <g class="c2 node n9 root" transform="translate(120 26.8)">
            <g class="a9 c2 node n5" transform="translate(50 196.4)">
              <g class="a5 leaf node n3 sample" transform="translate(25 98.2)">
                <path class="edge" d="M 0 0 V -98.2 H -25"/>
                <rect class="sym" height="6" width="6" x="-3" y="-3"/>
                <text class="lab" transform="translate(0 11)">3</text>
              </g>
              <g class="a5 leaf node n2 sample" transform="translate(-25 98.2)">
                <path class="edge" d="M 0 0 V -98.2 H 25"/>
                <rect class="sym" height="6" width="6" x="-3" y="-3"/>
                <text class="lab" transform="translate(0 11)">2</text>
              </g>
              <path class="edge" d="M 0 0 V -196.4 H -50"/>
              <circle class="sym" cx="0" cy="0" r="3"/>
              <text class="lab rgt" transform="translate(3 -7.0)">5</text>
            </g>
            <g class="a9 c1 node n8" transform="translate(-50 49.1)">
              <g class="a8 c1 node n7" transform="translate(0.0 49.1)">
                <g class="a7 c1 node n6" transform="translate(0.0 49.1)">
                  <g class="a6 c2 node n4" transform="translate(0.0 98.2)">
                    <g class="a4 leaf node n0 sample" transform="translate(-25 49.1)">
                      <path class="edge" d="M 0 0 V -49.1 H 25"/>
                      <rect class="sym" height="6" width="6" x="-3" y="-3"/>
                      <text class="lab" transform="translate(0 11)">0</text>
                    </g>
                    <g class="a4 leaf node n1 sample" transform="translate(25 49.1)">
                      <path class="edge" d="M 0 0 V -49.1 H -25"/>
                      <rect class="sym" height="6" width="6" x="-3" y="-3"/>
                      <text class="lab" transform="translate(0 11)">1</text>
                    </g>
                    <path class="edge" d="M 0 0 V -98.2 H 0.0"/>
                    <circle class="sym" cx="0" cy="0" r="3"/>
                    <text class="lab lft" transform="translate(-3 -7.0)">4</text>
                  </g>
                  <path class="edge" d="M 0 0 V -49.1 H 0.0"/>
                  <circle class="sym" cx="0" cy="0" r="3"/>
                  <text class="lab lft" transform="translate(-3 -7.0)">6</text>
                </g>
                <path class="edge" d="M 0 0 V -49.1 H 0.0"/>
                <circle class="sym" cx="0" cy="0" r="3"/>
                <text class="lab lft" transform="translate(-3 -7.0)">7</text>
              </g>
              <path class="edge" d="M 0 0 V -49.1 H 50"/>
              <circle class="sym" cx="0" cy="0" r="3"/>
              <text class="lab lft" transform="translate(-3 -7.0)">8</text>
            </g>
            <circle class="sym" cx="0" cy="0" r="3"/>
            <text class="lab" transform="translate(0 -11)">9</text>
          </g>
        </g>
      </g>
    </g>
  </g>
</svg>
